<mxfile host="app.diagrams.net" agent="Mozilla/5.0 (Macintosh; Intel Mac OS X 10_15_7) AppleWebKit/537.36 (KHTML, like Gecko) Chrome/127.0.0.0 Safari/537.36" version="26.0.8">
  <diagram name="Page-1" id="gXM-GelUflYNmHCkCIh1">
    <mxGraphModel dx="1520" dy="4046" grid="1" gridSize="10" guides="1" tooltips="1" connect="1" arrows="1" fold="1" page="1" pageScale="1" pageWidth="1169" pageHeight="1654" math="0" shadow="0">
      <root>
        <mxCell id="0" />
        <mxCell id="1" parent="0" />
        <mxCell id="j9WPDJRD46hS3IfpR3rU-7" value="" style="group" vertex="1" connectable="0" parent="1">
          <mxGeometry x="30" y="-1540" width="480" height="125" as="geometry" />
        </mxCell>
        <mxCell id="j9WPDJRD46hS3IfpR3rU-6" value="" style="rounded=0;whiteSpace=wrap;html=1;" vertex="1" parent="j9WPDJRD46hS3IfpR3rU-7">
          <mxGeometry width="480" height="125" as="geometry" />
        </mxCell>
        <mxCell id="j9WPDJRD46hS3IfpR3rU-2" value="Requirements:&amp;nbsp;" style="text;html=1;align=center;verticalAlign=middle;whiteSpace=wrap;rounded=0;" vertex="1" parent="j9WPDJRD46hS3IfpR3rU-7">
          <mxGeometry x="180" y="15" width="120" height="30" as="geometry" />
        </mxCell>
        <mxCell id="j9WPDJRD46hS3IfpR3rU-3" value="1. A user should be able to submit claims&lt;div&gt;2. A user should be able to view a list of their on-going claims&lt;/div&gt;&lt;div&gt;3. A user should be able to view their documents with their signatures on required docs&lt;/div&gt;&lt;div&gt;3b: A user should receive an email with docs on signup&lt;/div&gt;" style="text;html=1;align=center;verticalAlign=middle;resizable=0;points=[];autosize=1;strokeColor=none;fillColor=none;" vertex="1" parent="j9WPDJRD46hS3IfpR3rU-7">
          <mxGeometry y="45" width="480" height="70" as="geometry" />
        </mxCell>
        <mxCell id="j9WPDJRD46hS3IfpR3rU-5" value="" style="endArrow=none;html=1;rounded=0;" edge="1" parent="j9WPDJRD46hS3IfpR3rU-7">
          <mxGeometry width="50" height="50" relative="1" as="geometry">
            <mxPoint x="153" y="42" as="sourcePoint" />
            <mxPoint x="323" y="42" as="targetPoint" />
          </mxGeometry>
        </mxCell>
        <mxCell id="j9WPDJRD46hS3IfpR3rU-8" value="&lt;h1 style=&quot;margin-top: 0px;&quot;&gt;Progress Claims&lt;/h1&gt;&lt;div&gt;This file includes logic breakdown of application&lt;/div&gt;" style="text;html=1;whiteSpace=wrap;overflow=hidden;rounded=0;" vertex="1" parent="1">
          <mxGeometry x="40" y="-1670" width="180" height="120" as="geometry" />
        </mxCell>
        <mxCell id="j9WPDJRD46hS3IfpR3rU-9" value="" style="group" vertex="1" connectable="0" parent="1">
          <mxGeometry x="540" y="-1540" width="480" height="270" as="geometry" />
        </mxCell>
        <mxCell id="j9WPDJRD46hS3IfpR3rU-10" value="" style="rounded=0;whiteSpace=wrap;html=1;" vertex="1" parent="j9WPDJRD46hS3IfpR3rU-9">
          <mxGeometry width="480" height="270" as="geometry" />
        </mxCell>
        <mxCell id="j9WPDJRD46hS3IfpR3rU-12" value="Database: PostgreSQL&lt;div&gt;Frontend: Vue.js 3&lt;/div&gt;&lt;div&gt;Backend: Adonis.js (express server)&lt;/div&gt;&lt;div&gt;Cloud infrastructure (Azure or AWS)&lt;/div&gt;&lt;div&gt;File storage: Azure Blob / S3&lt;/div&gt;&lt;div&gt;SMTP Server: AWS/Azure&lt;/div&gt;&lt;div&gt;Version Control: Github&lt;/div&gt;&lt;div&gt;&lt;br&gt;&lt;/div&gt;&lt;div&gt;&lt;br&gt;&lt;/div&gt;" style="text;html=1;align=center;verticalAlign=middle;resizable=0;points=[];autosize=1;strokeColor=none;fillColor=none;" vertex="1" parent="j9WPDJRD46hS3IfpR3rU-9">
          <mxGeometry x="135" y="80.00285714285714" width="210" height="140" as="geometry" />
        </mxCell>
        <mxCell id="j9WPDJRD46hS3IfpR3rU-25" value="" style="group" vertex="1" connectable="0" parent="j9WPDJRD46hS3IfpR3rU-9">
          <mxGeometry x="153" y="23.57142857142857" width="170" height="47.14285714285714" as="geometry" />
        </mxCell>
        <mxCell id="j9WPDJRD46hS3IfpR3rU-11" value="Tech stack:&amp;nbsp;" style="text;html=1;align=center;verticalAlign=middle;whiteSpace=wrap;rounded=0;" vertex="1" parent="j9WPDJRD46hS3IfpR3rU-25">
          <mxGeometry x="27" width="120" height="47.14285714285714" as="geometry" />
        </mxCell>
        <mxCell id="j9WPDJRD46hS3IfpR3rU-13" value="" style="endArrow=none;html=1;rounded=0;" edge="1" parent="j9WPDJRD46hS3IfpR3rU-25">
          <mxGeometry width="50" height="50" relative="1" as="geometry">
            <mxPoint y="42.42857142857143" as="sourcePoint" />
            <mxPoint x="170" y="42.42857142857143" as="targetPoint" />
          </mxGeometry>
        </mxCell>
        <mxCell id="j9WPDJRD46hS3IfpR3rU-14" value="" style="group" vertex="1" connectable="0" parent="1">
          <mxGeometry x="30" y="-1390" width="480" height="125" as="geometry" />
        </mxCell>
        <mxCell id="j9WPDJRD46hS3IfpR3rU-15" value="https://docs.google.com/document/d/1GVZe44ykjg9FegNfFOoa_drVPp5GNdBNiZfO-nGEbI4/edit?tab=t.0" style="rounded=0;whiteSpace=wrap;html=1;" vertex="1" parent="j9WPDJRD46hS3IfpR3rU-14">
          <mxGeometry width="480" height="125" as="geometry" />
        </mxCell>
        <mxCell id="j9WPDJRD46hS3IfpR3rU-16" value="Requirements file" style="text;html=1;align=center;verticalAlign=middle;whiteSpace=wrap;rounded=0;" vertex="1" parent="j9WPDJRD46hS3IfpR3rU-14">
          <mxGeometry x="180" y="15" width="120" height="30" as="geometry" />
        </mxCell>
        <mxCell id="j9WPDJRD46hS3IfpR3rU-18" value="" style="endArrow=none;html=1;rounded=0;" edge="1" parent="j9WPDJRD46hS3IfpR3rU-14">
          <mxGeometry width="50" height="50" relative="1" as="geometry">
            <mxPoint x="153" y="42" as="sourcePoint" />
            <mxPoint x="323" y="42" as="targetPoint" />
          </mxGeometry>
        </mxCell>
        <mxCell id="j9WPDJRD46hS3IfpR3rU-22" value="" style="rounded=0;whiteSpace=wrap;html=1;" vertex="1" parent="1">
          <mxGeometry x="30" y="-1230" width="480" height="270" as="geometry" />
        </mxCell>
        <mxCell id="j9WPDJRD46hS3IfpR3rU-26" value="" style="group" vertex="1" connectable="0" parent="1">
          <mxGeometry x="180" y="-1209.9985714285713" width="170" height="47.14285714285714" as="geometry" />
        </mxCell>
        <mxCell id="j9WPDJRD46hS3IfpR3rU-27" value="What i need:" style="text;html=1;align=center;verticalAlign=middle;whiteSpace=wrap;rounded=0;" vertex="1" parent="j9WPDJRD46hS3IfpR3rU-26">
          <mxGeometry x="27" width="120" height="47.14285714285714" as="geometry" />
        </mxCell>
        <mxCell id="j9WPDJRD46hS3IfpR3rU-28" value="" style="endArrow=none;html=1;rounded=0;" edge="1" parent="j9WPDJRD46hS3IfpR3rU-26">
          <mxGeometry width="50" height="50" relative="1" as="geometry">
            <mxPoint y="42.42857142857143" as="sourcePoint" />
            <mxPoint x="170" y="42.42857142857143" as="targetPoint" />
          </mxGeometry>
        </mxCell>
        <mxCell id="j9WPDJRD46hS3IfpR3rU-29" value="Login for a cloud service -&amp;nbsp; azure&lt;div&gt;Terms of business&amp;nbsp;&lt;/div&gt;&lt;div&gt;Letter of Auth content&lt;/div&gt;&lt;div&gt;Damages Based Agreement&lt;/div&gt;&lt;div&gt;Client Care letter&lt;/div&gt;&lt;div&gt;Fee structure if we want to display to users - No&amp;nbsp;&lt;/div&gt;&lt;div&gt;Privacy Policy&lt;/div&gt;&lt;div&gt;Terms &amp;amp; conditions&lt;/div&gt;&lt;div&gt;Do we want payment calc? - yes&lt;/div&gt;&lt;div&gt;List of lenders - yes&lt;/div&gt;&lt;div&gt;&lt;br&gt;&lt;/div&gt;" style="text;html=1;align=center;verticalAlign=middle;resizable=0;points=[];autosize=1;strokeColor=none;fillColor=none;" vertex="1" parent="1">
          <mxGeometry x="125" y="-1154.9971428571428" width="280" height="170" as="geometry" />
        </mxCell>
        <mxCell id="j9WPDJRD46hS3IfpR3rU-30" value="" style="group" vertex="1" connectable="0" parent="1">
          <mxGeometry x="540" y="-1230" width="480" height="270" as="geometry" />
        </mxCell>
        <mxCell id="j9WPDJRD46hS3IfpR3rU-31" value="" style="rounded=0;whiteSpace=wrap;html=1;" vertex="1" parent="j9WPDJRD46hS3IfpR3rU-30">
          <mxGeometry width="480" height="270" as="geometry" />
        </mxCell>
        <mxCell id="j9WPDJRD46hS3IfpR3rU-32" value="Address lookup&lt;div&gt;Car lookup&lt;/div&gt;" style="text;html=1;align=center;verticalAlign=middle;resizable=0;points=[];autosize=1;strokeColor=none;fillColor=none;" vertex="1" parent="j9WPDJRD46hS3IfpR3rU-30">
          <mxGeometry x="185" y="130.00285714285712" width="110" height="40" as="geometry" />
        </mxCell>
        <mxCell id="j9WPDJRD46hS3IfpR3rU-33" value="" style="group" vertex="1" connectable="0" parent="j9WPDJRD46hS3IfpR3rU-30">
          <mxGeometry x="153" y="23.57142857142857" width="170" height="47.14285714285714" as="geometry" />
        </mxCell>
        <mxCell id="j9WPDJRD46hS3IfpR3rU-34" value="External APIs" style="text;html=1;align=center;verticalAlign=middle;whiteSpace=wrap;rounded=0;" vertex="1" parent="j9WPDJRD46hS3IfpR3rU-33">
          <mxGeometry x="27" width="120" height="47.14285714285714" as="geometry" />
        </mxCell>
        <mxCell id="j9WPDJRD46hS3IfpR3rU-35" value="" style="endArrow=none;html=1;rounded=0;" edge="1" parent="j9WPDJRD46hS3IfpR3rU-33">
          <mxGeometry width="50" height="50" relative="1" as="geometry">
            <mxPoint y="42.42857142857143" as="sourcePoint" />
            <mxPoint x="170" y="42.42857142857143" as="targetPoint" />
          </mxGeometry>
        </mxCell>
        <UserObject label="&lt;div class=&quot;bg-gray-50 py-8 md:py-12&quot; style=&quot;box-sizing: border-box; border-width: 0px; border-style: solid; border-color: rgb(229, 231, 235); --tw-border-spacing-x: 0; --tw-border-spacing-y: 0; --tw-translate-x: 0; --tw-translate-y: 0; --tw-rotate: 0; --tw-skew-x: 0; --tw-skew-y: 0; --tw-scale-x: 1; --tw-scale-y: 1; --tw-pan-x: ; --tw-pan-y: ; --tw-pinch-zoom: ; --tw-scroll-snap-strictness: proximity; --tw-gradient-from-position: ; --tw-gradient-via-position: ; --tw-gradient-to-position: ; --tw-ordinal: ; --tw-slashed-zero: ; --tw-numeric-figure: ; --tw-numeric-spacing: ; --tw-numeric-fraction: ; --tw-ring-inset: ; --tw-ring-offset-width: 0px; --tw-ring-offset-color: #fff; --tw-ring-color: rgb(59 130 246 / .5); --tw-ring-offset-shadow: 0 0 #0000; --tw-ring-shadow: 0 0 #0000; --tw-shadow: 0 0 #0000; --tw-shadow-colored: 0 0 #0000; --tw-blur: ; --tw-brightness: ; --tw-contrast: ; --tw-grayscale: ; --tw-hue-rotate: ; --tw-invert: ; --tw-saturate: ; --tw-sepia: ; --tw-drop-shadow: ; --tw-backdrop-blur: ; --tw-backdrop-brightness: ; --tw-backdrop-contrast: ; --tw-backdrop-grayscale: ; --tw-backdrop-hue-rotate: ; --tw-backdrop-invert: ; --tw-backdrop-opacity: ; --tw-backdrop-saturate: ; --tw-backdrop-sepia: ; --tw-bg-opacity: 1; background-color: rgb(249 250 251 / var(--tw-bg-opacity)); padding-top: 3rem; padding-bottom: 3rem; color: rgb(0, 0, 0); font-family: Poppins, ui-sans-serif, system-ui, sans-serif, &amp;quot;Apple Color Emoji&amp;quot;, &amp;quot;Segoe UI Emoji&amp;quot;, &amp;quot;Segoe UI Symbol&amp;quot;, &amp;quot;Noto Color Emoji&amp;quot;; font-size: medium; font-style: normal; font-variant-ligatures: normal; font-variant-caps: normal; font-weight: 400; letter-spacing: normal; orphans: 2; text-align: start; text-indent: 0px; text-transform: none; widows: 2; word-spacing: 0px; -webkit-text-stroke-width: 0px; white-space: normal; text-decoration-thickness: initial; text-decoration-style: initial; text-decoration-color: initial;&quot;&gt;&lt;div class=&quot;mx-auto max-w-7xl&quot; style=&quot;box-sizing: border-box; border-width: 0px; border-style: solid; border-color: rgb(229, 231, 235); --tw-border-spacing-x: 0; --tw-border-spacing-y: 0; --tw-translate-x: 0; --tw-translate-y: 0; --tw-rotate: 0; --tw-skew-x: 0; --tw-skew-y: 0; --tw-scale-x: 1; --tw-scale-y: 1; --tw-pan-x: ; --tw-pan-y: ; --tw-pinch-zoom: ; --tw-scroll-snap-strictness: proximity; --tw-gradient-from-position: ; --tw-gradient-via-position: ; --tw-gradient-to-position: ; --tw-ordinal: ; --tw-slashed-zero: ; --tw-numeric-figure: ; --tw-numeric-spacing: ; --tw-numeric-fraction: ; --tw-ring-inset: ; --tw-ring-offset-width: 0px; --tw-ring-offset-color: #fff; --tw-ring-color: rgb(59 130 246 / .5); --tw-ring-offset-shadow: 0 0 #0000; --tw-ring-shadow: 0 0 #0000; --tw-shadow: 0 0 #0000; --tw-shadow-colored: 0 0 #0000; --tw-blur: ; --tw-brightness: ; --tw-contrast: ; --tw-grayscale: ; --tw-hue-rotate: ; --tw-invert: ; --tw-saturate: ; --tw-sepia: ; --tw-drop-shadow: ; --tw-backdrop-blur: ; --tw-backdrop-brightness: ; --tw-backdrop-contrast: ; --tw-backdrop-grayscale: ; --tw-backdrop-hue-rotate: ; --tw-backdrop-invert: ; --tw-backdrop-opacity: ; --tw-backdrop-saturate: ; --tw-backdrop-sepia: ; margin-left: auto; margin-right: auto; max-width: 80rem;&quot;&gt;&lt;h2 class=&quot;text-center text-xl md:text-2xl font-semibold leading-8 text-gray-900 mx-4 md:mx-0 font-body&quot; style=&quot;box-sizing: border-box; border-width: 0px; border-style: solid; border-color: rgb(229, 231, 235); --tw-border-spacing-x: 0; --tw-border-spacing-y: 0; --tw-translate-x: 0; --tw-translate-y: 0; --tw-rotate: 0; --tw-skew-x: 0; --tw-skew-y: 0; --tw-scale-x: 1; --tw-scale-y: 1; --tw-pan-x: ; --tw-pan-y: ; --tw-pinch-zoom: ; --tw-scroll-snap-strictness: proximity; --tw-gradient-from-position: ; --tw-gradient-via-position: ; --tw-gradient-to-position: ; --tw-ordinal: ; --tw-slashed-zero: ; --tw-numeric-figure: ; --tw-numeric-spacing: ; --tw-numeric-fraction: ; --tw-ring-inset: ; --tw-ring-offset-width: 0px; --tw-ring-offset-color: #fff; --tw-ring-color: rgb(59 130 246 / .5); --tw-ring-offset-shadow: 0 0 #0000; --tw-ring-shadow: 0 0 #0000; --tw-shadow: 0 0 #0000; --tw-shadow-colored: 0 0 #0000; --tw-blur: ; --tw-brightness: ; --tw-contrast: ; --tw-grayscale: ; --tw-hue-rotate: ; --tw-invert: ; --tw-saturate: ; --tw-sepia: ; --tw-drop-shadow: ; --tw-backdrop-blur: ; --tw-backdrop-brightness: ; --tw-backdrop-contrast: ; --tw-backdrop-grayscale: ; --tw-backdrop-hue-rotate: ; --tw-backdrop-invert: ; --tw-backdrop-opacity: ; --tw-backdrop-saturate: ; --tw-backdrop-sepia: ; font-size: 1.5rem; font-weight: 600; margin: 0px; text-align: center; font-family: Inter, system-ui, sans; line-height: 2rem; --tw-text-opacity: 1; color: rgb(17 24 39 / var(--tw-text-opacity));&quot;&gt;Mis-sold car finance claims have been featured in&lt;/h2&gt;&lt;div class=&quot;mx-auto mt-8 md:mt-10 md:mb-8 grid max-w-lg grid-cols-4 items-center gap-x-8 gap-y-10 sm:max-w-xl sm:grid-cols-4 sm:gap-x-20 lg:max-w-none lg:grid-cols-4 px-8 md:mx-auto lg:mx-0&quot; style=&quot;box-sizing: border-box; border-width: 0px; border-style: solid; border-color: rgb(229, 231, 235); --tw-border-spacing-x: 0; --tw-border-spacing-y: 0; --tw-translate-x: 0; --tw-translate-y: 0; --tw-rotate: 0; --tw-skew-x: 0; --tw-skew-y: 0; --tw-scale-x: 1; --tw-scale-y: 1; --tw-pan-x: ; --tw-pan-y: ; --tw-pinch-zoom: ; --tw-scroll-snap-strictness: proximity; --tw-gradient-from-position: ; --tw-gradient-via-position: ; --tw-gradient-to-position: ; --tw-ordinal: ; --tw-slashed-zero: ; --tw-numeric-figure: ; --tw-numeric-spacing: ; --tw-numeric-fraction: ; --tw-ring-inset: ; --tw-ring-offset-width: 0px; --tw-ring-offset-color: #fff; --tw-ring-color: rgb(59 130 246 / .5); --tw-ring-offset-shadow: 0 0 #0000; --tw-ring-shadow: 0 0 #0000; --tw-shadow: 0 0 #0000; --tw-shadow-colored: 0 0 #0000; --tw-blur: ; --tw-brightness: ; --tw-contrast: ; --tw-grayscale: ; --tw-hue-rotate: ; --tw-invert: ; --tw-saturate: ; --tw-sepia: ; --tw-drop-shadow: ; --tw-backdrop-blur: ; --tw-backdrop-brightness: ; --tw-backdrop-contrast: ; --tw-backdrop-grayscale: ; --tw-backdrop-hue-rotate: ; --tw-backdrop-invert: ; --tw-backdrop-opacity: ; --tw-backdrop-saturate: ; --tw-backdrop-sepia: ; margin: 2.5rem 0px 2rem; display: grid; max-width: none; grid-template-columns: repeat(4, minmax(0px, 1fr)); align-items: center; gap: 2.5rem 5rem; padding-left: 2rem; padding-right: 2rem;&quot;&gt;&lt;svg class=&quot;col-span-2 max-h-6 md:max-h-10 w-full object-contain lg:col-span-1&quot; width=&quot;158&quot; height=&quot;42&quot; aria-hidden=&quot;true&quot; tabindex=&quot;-1&quot; viewBox=&quot;0 0 112 32&quot; xmlns=&quot;http://www.w3.org/2000/svg&quot;&gt;&lt;path d=&quot;M111.99999,4.44444577e-05 L111.99999,32.0000444 L79.9999905,32.0000444 L79.9999905,4.44444577e-05 L111.99999,4.44444577e-05 Z M72.0000119,-3.55271368e-15 L72.0000119,32 L40.0000119,32 L40.0000119,-3.55271368e-15 L72.0000119,-3.55271368e-15 Z M32,-3.55271368e-15 L32,32 L-1.13686838e-13,32 L-1.13686838e-13,-3.55271368e-15 L32,-3.55271368e-15 Z M97.469329,6.80826869 C96.0294397,6.80826869 94.7294393,7.02226876 93.5693278,7.44982444 C92.4089942,7.87782457 91.4137717,8.49471364 90.5841047,9.30049166 C89.7538823,10.1067141 89.1188821,11.07327 88.6785486,12.199937 C88.2378818,13.3269373 88.0177706,14.5896043 88.0177706,15.9876048 C88.0177706,17.4188274 88.2296596,18.7062722 88.6531042,19.8493837 C89.0763265,20.9929396 89.6861045,21.9591621 90.482438,22.748829 C91.2784383,23.5383848 92.2522163,24.1430516 93.4042167,24.5624962 C94.5558837,24.9819408 95.8516619,25.1917186 97.2914401,25.1917186 C98.3752182,25.1917186 99.4086629,25.072163 100.391219,24.8338296 C101.37333,24.5956073 102.237108,24.2706072 102.982664,23.8592738 L102.982664,23.8592738 L102.982664,20.4292727 C101.40733,21.4001619 99.6881074,21.8851621 97.8251069,21.8851621 C96.6054399,21.8851621 95.567884,21.6549398 94.7126615,21.194273 C93.8572168,20.7338284 93.2049944,20.0633837 92.7564387,19.1831613 C92.3073275,18.3032721 92.0831052,17.2380496 92.0831052,15.9876048 C92.0831052,14.7377155 92.3156608,13.6766041 92.7816609,12.8044927 C93.2474389,11.9327147 93.916328,11.2664922 94.7888838,10.8058254 C95.6609951,10.3453809 96.715551,10.1148252 97.9521069,10.1148252 C98.8496628,10.1148252 99.7052186,10.2342697 100.518108,10.4726031 C101.331219,10.7112699 102.084664,11.0609366 102.779442,11.5212701 L102.779442,11.5212701 L102.779442,8.01738016 C102.017219,7.62260227 101.191441,7.32260218 100.302219,7.11671323 C99.4129963,6.91126872 98.4685515,6.80826869 97.469329,6.80826869 Z M55.7552388,7.00000208 L49.0000146,7.00000208 L49.0000146,25.0000021 L56.1713501,25.0000021 C57.590906,25.0000021 58.8063508,24.7903407 59.8181289,24.3706739 C60.8297959,23.9513405 61.6087961,23.3553403 62.1555741,22.5832289 C62.7020187,21.8114509 62.9754632,20.8882284 62.9754632,19.8140059 C62.9754632,18.7232278 62.6941298,17.7960053 62.1312407,17.0321162 C61.5681294,16.2686715 60.7563514,15.7104491 59.6957955,15.3580046 C60.4625736,14.9891156 61.0420182,14.4894488 61.4335738,13.8601152 C61.8252406,13.2307817 62.0210185,12.4881148 62.0210185,11.6321146 C62.0210185,10.1385586 61.4742405,8.99311379 60.3812402,8.19578022 C59.2877954,7.39889109 57.745795,7.00000208 55.7552388,7.00000208 L55.7552388,7.00000208 Z M15.7552269,7.00000208 L9.00000268,7.00000208 L9.00000268,25.0000021 L16.1713381,25.0000021 C17.5908941,25.0000021 18.8062278,24.7903407 19.8182281,24.3706739 C20.8296729,23.9513405 21.6087842,23.3553403 22.1555621,22.5832289 C22.7021179,21.8114509 22.9755624,20.8882284 22.9755624,19.8140059 C22.9755624,18.7232278 22.6941179,17.7960053 22.1311177,17.0321162 C21.5682286,16.2686715 20.7563395,15.7104491 19.6957836,15.3580046 C20.4625616,14.9891156 21.0418952,14.4894488 21.4335619,13.8601152 C21.8252287,13.2307817 22.0210066,12.4881148 22.0210066,11.6321146 C22.0210066,10.1385586 21.4741175,8.99311379 20.3811172,8.19578022 C19.2877835,7.39889109 17.7457831,7.00000208 15.7552269,7.00000208 L15.7552269,7.00000208 Z M55.8775833,17.2209385 C58.1128062,17.2209385 59.2308065,18.0434943 59.2308065,19.6881614 C59.2308065,20.4602728 58.9369175,21.0518285 58.3496951,21.4629397 C57.7622505,21.8743843 56.9216947,22.0797177 55.8286944,22.0797177 L55.8286944,22.0797177 L52.6469157,22.0797177 L52.6469157,17.2209385 Z M15.8775714,17.2209385 C18.1129054,17.2209385 19.2307946,18.0434943 19.2307946,19.6881614 C19.2307946,20.4602728 18.9370167,21.0518285 18.3496832,21.4629397 C17.7622386,21.8743843 16.9216828,22.0797177 15.8286825,22.0797177 L15.8286825,22.0797177 L12.6469038,22.0797177 L12.6469038,17.2209385 Z M55.412572,9.92028073 C57.3541282,9.92028073 58.3252396,10.6338365 58.3252396,12.0600591 C58.3252396,12.7988371 58.0763506,13.373504 57.5786838,13.7846152 C57.0807948,14.1960598 56.3587946,14.4013932 55.412572,14.4013932 L55.412572,14.4013932 L52.6469046,14.4013932 L52.6469046,9.92028073 Z M15.4125601,9.92028073 C17.3541163,9.92028073 18.3252277,10.6338365 18.3252277,12.0600591 C18.3252277,12.7988371 18.0762276,13.373504 17.5786719,13.7846152 C17.0807829,14.1960598 16.3587826,14.4013932 15.4125601,14.4013932 L15.4125601,14.4013932 L12.6468927,14.4013932 L12.6468927,9.92028073 Z&quot;&gt;&lt;/path&gt;&lt;/svg&gt;&lt;svg class=&quot;col-span-2 max-h-6 md:max-h-10 w-full object-contain lg:col-span-1&quot; width=&quot;158&quot; height=&quot;40&quot; aria-hidden=&quot;true&quot; tabindex=&quot;-1&quot; viewBox=&quot;0 0 951 205&quot; xmlns=&quot;http://www.w3.org/2000/svg&quot;&gt;&lt;path fill=&quot;#000&quot; d=&quot;m198.8 3.3-23.7 122.9h-.3l-25-122.9h-47.4L77.7 126.2h-.3L53.8 3.3H0l45.7 198h54L125.1 80h.3l25.9 121.3h53.5l45.7-198zM856.4 135v-5.2c0-19.3 8.2-31.6 20.2-42.5l7-5.7c7.9-6.4 14.9-12.3 14.9-21.3 0-10.3-7-16.5-18-16.5-10.1 0-17.8 6.4-21.1 17.5l-.4 1.4h-49.3c3.6-40.5 34.4-62.7 75-62.7 38.8 0 66 22 66 54.5 0 22.2-12.4 33.3-23.3 43.2-13.2 12-19.6 21.2-19.8 32.1v5.2h-51.2Z&quot;&gt;&lt;/path&gt;&lt;path fill=&quot;#E81C30&quot; d=&quot;M907.5 201.3H795.7v-45.1h111.8z&quot;&gt;&lt;/path&gt;&lt;path d=&quot;M720.9 201.3V116c0-21-21-27-31.3-8a62.7 62.7 0 0 0-5.3 29.3v64.1h-50.7V3.3h50.7v86.4c16.9-35.8 56.6-40.4 76.3-18.6 7.1 7.9 11 19.3 11 34v96.2h-50.7ZM347.9 201.3V116c0-21-21-27-31.3-8a62.7 62.7 0 0 0-5.3 29.3v64.1h-50.7V3.3h50.7v86.4c16.9-35.8 56.6-40.4 76.3-18.6 7.1 7.9 11 19.3 11 34v96.2h-50.7ZM418.3 201.3V61.5H469v139.8h-50.7zM619.7 149.5c-2.1 31.5-25.9 55.4-63 55.4-44.6 0-72.4-28.2-72.4-73.5 0-44.6 28-73.4 71.4-73.4 34.1 0 60.6 17 63.4 55.2h-44c-1.9-9.4-7-19.2-19.3-19.2-19.4 0-22.6 24-22.6 37.4 0 16.4 4.5 37.2 22.5 37.2 9 0 15.9-7.1 19.3-19h44.7ZM443.6 52.2c-14 0-28.1-8.9-28.1-26C415.5 9 429.6 0 443.5 0c14 0 28.2 9 28.2 26.2 0 17.1-14.1 26-28.1 26Z&quot; fill=&quot;#000&quot;&gt;&lt;/path&gt;&lt;/svg&gt;&lt;svg class=&quot;col-span-2 md:max-h-12 w-full object-contain lg:col-span-1&quot; width=&quot;158&quot; height=&quot;48&quot; aria-hidden=&quot;true&quot; tabindex=&quot;-1&quot; viewBox=&quot;0 0 430 60&quot; xmlns=&quot;http://www.w3.org/2000/svg&quot;&gt;&lt;path d=&quot;M69.23 61.13c2.92-1.87 5.74-4.12 5.74-8.54V25.03l-4.42-4.64-1.72 1.72 3.82 4.04v26.44c0 3.67-1.35 6.37-3.6 8.24l.18.3zM52.35 2.71l-.07.3c1.27.53 2.85 1.8 2.85 4.35v40.59l-1.57 1.57 6.14 5.17 1.8-1.5-4.94-4.04.9-.82V7.73c-.02-3.22-2.94-4.79-5.11-5.02m3.67 61.19c7.79-.6 15.51-3.22 15.51-11.46V26.45L68 22.86l-3.9 3.82v19.54l3.22 2.92-7.41 6.59h-.67l-7.27-6.22 1.95-1.94V7.81c0-3-2.55-4.57-4.12-4.94v-.68c.68-.38 1.8-.6 3.23-.6 2.47 0 4.79 1.5 5.46 3.14h.22c1.5-2.25 3.9-3.14 6.22-3.22.68 0 1.5.08 2.32.3v.82C65.98 3 64.1 4.58 64.1 8.55V25.1l9.59-9.21h.68c.67.67 4.86 4.49 5.69 5.02.38.23.9.37 1.35.37.83 0 1.35-.3 2.02-.6v1.05c-.75.67-1.72 1.95-1.72 3.6v22.54c0 9.96-10.93 16.03-25.69 17.08V63.9zM100.28 20.54l-1.95 1.35c2.24 2.62 5.09 6 7.94 9.14l2.02-1.35c-2.85-3.15-5.69-6.6-8.01-9.14m-2.25 15.95l7.19-4.87c-2.47-2.85-5.1-5.84-7.19-8.24v13.11zm4.64 16.63c-4.34-1.95-8.23-3.52-11.68-5.39.22-1.27.3-2.77.3-6.97v-16.4l-2.32 1.2v15.2c0 4.19-.08 6.89-.45 8.08 3.37 1.88 8.17 3.9 12.59 5.85l1.56-1.57zM87.85 24.88c4.27-2.1 10.7-5.92 14.97-8.99h.75c2.77 2.92 6.89 7.56 10.41 10.71v.82L98.03 37.84v6.44c1.65 1.05 6.29 3.37 9.06 4.34l6.44-6.21.75.82-12.95 12.51h-.75c-4.34-1.87-9.96-4.27-13.55-6.29.45-1.35.82-4.65.82-8.76V24.88zM415.33 61.04c2.92-1.87 5.73-4.13 5.73-8.54V24.94l-4.42-4.65-1.72 1.73 3.82 4.04V52.5c0 3.67-1.35 6.37-3.6 8.24l.19.3zM398.45 2.62l-.07.3c1.27.52 2.85 1.79 2.85 4.35v40.59l-1.57 1.57 6.14 5.17 1.8-1.5-4.94-4.04.9-.82V7.64c-.02-3.22-2.94-4.79-5.11-5.02m3.67 61.19c7.79-.6 15.51-3.22 15.51-11.46V26.36l-3.52-3.6-3.9 3.82v19.54l3.22 2.92-7.41 6.59h-.67l-7.27-6.22 1.95-1.94V7.71c0-3-2.55-4.57-4.12-4.94V2.1c.68-.37 1.8-.6 3.23-.6 2.47 0 4.79 1.5 5.46 3.14h.23c1.5-2.24 3.9-3.14 6.22-3.22.67 0 1.5.08 2.32.3v.82c-1.27.37-3.15 1.95-3.15 5.91V25l9.59-9.21h.68c.67.67 4.86 4.49 5.69 5.02.38.22.9.37 1.35.37.82 0 1.35-.3 2.02-.6v1.36c-.75.67-1.73 1.95-1.73 3.6v22.23c0 9.96-10.93 16.03-25.69 17.07v-1.03zM195.03 20.51l-1.94 1.35c2.24 2.62 5.09 5.99 7.93 9.14l2.02-1.35c-2.85-3.15-5.69-6.6-8.01-9.14M192.9 36.4l7.19-4.87c-2.47-2.85-5.09-5.84-7.19-8.24V36.4zm4.64 16.62c-4.34-1.95-8.24-3.52-11.68-5.39.22-1.27.3-2.77.3-6.97v-16.4l-2.32 1.2v15.2c0 4.2-.07 6.89-.45 8.09 3.37 1.88 8.16 3.9 12.58 5.84l1.57-1.57zm-14.82-28.23c4.27-2.1 10.71-5.92 14.98-8.99h.75c2.77 2.92 6.89 7.56 10.41 10.71v.82L192.9 37.74v6.44c1.65 1.05 6.29 3.37 9.06 4.34l6.44-6.21.75.82-12.95 12.52h-.75c-4.35-1.87-9.96-4.27-13.56-6.29.45-1.35.82-4.64.82-8.76V24.79zM222.33 52.87c-2.92-.82-5.77-2.7-5.77-6.74V9.81l-3.22-3.3-1.72 1.72 2.62 2.69v36.17c0 4.12 3.3 6.74 6.37 7.49l1.72-1.71zm.98-46.13v38.5c0 1.64 1.57 3.22 3.07 3.51l2.32-2.32.67.82-8.24 8.39h-.45c-3.14-.68-7.56-3.45-7.56-8.32V11.46l-2.32-2.32-2.4 2.4-.74-.75 9.21-9.28h.6l5.84 5.23zM245.4 20.45l-1.95 1.35c2.25 2.62 5.09 5.99 7.94 9.14l2.02-1.35c-2.84-3.16-5.69-6.6-8.01-9.14m-2.24 15.95l7.19-4.87c-2.47-2.85-5.09-5.84-7.19-8.24V36.4zm4.63 16.62c-4.34-1.95-8.23-3.52-11.68-5.39.22-1.27.3-2.77.3-6.97v-16.4l-2.32 1.2v15.2c0 4.2-.07 6.89-.45 8.09 3.37 1.88 8.16 3.9 12.58 5.84l1.57-1.57zm-14.83-28.23c4.27-2.1 10.71-5.92 14.98-8.99h.75c2.77 2.92 6.89 7.56 10.41 10.71v.82l-15.95 10.41v6.44c1.64 1.05 6.29 3.37 9.06 4.34l6.44-6.21.75.82-12.96 12.51h-.75c-4.34-1.87-9.96-4.27-13.56-6.29.45-1.35.82-4.64.82-8.76v-15.8zM313.88 22.99c1.27 1.2 3.07 2.92 4.57 4.19l1.51-1.74c-1.43-1.28-3.6-3.15-4.64-4.2l-1.44 1.75zm-3.89 29.88c-2.99-.82-5.84-2.69-5.84-6.74V24.12L301 20.89l-1.79 1.72 2.62 2.7V47.1c0 4.12 3.3 6.74 6.36 7.49l1.8-1.72zm.89-26.51v18.87c0 1.65 1.5 3.14 3.07 3.44l2.32-2.25.68.82-8.24 8.39h-.52c-3.07-.68-7.49-3.45-7.49-8.32V25.76l-2.32-2.32-2.4 2.4-.82-.75 9.21-9.29h.68l5.84 5.69v3.15l7.41-8.84h.68c1.5 1.5 3.82 3.74 5.84 5.24v.15l-6.21 7.41h-.15c-1.72-1.5-4.04-3.6-5.32-4.87l-2.26 2.63zM342.71 46.73V34.97c-2.32-.6-4.72-1.57-6.97-2.69v14.53l4.12 2.55 2.85-2.63zm9.29 6.22c-2.77-1.05-5.77-3.07-5.77-7.04V25.69l-11.08-5.55c-.3.22-1.58 1.13-1.95 1.42l10.71 5.55v19.7c0 3.82 3.52 6.74 6.37 7.79l1.72-1.65zm-9.29-19.1v-6.06l-10.49-5.54c-.75.6-3.6 2.33-4.49 2.77 2.48 3.29 8.99 7.33 14.98 8.83m-6.29 18.95l-7.41-4.94V37l-2.25 1.65v10.56l7.94 5.32 1.72-1.73zm-1.95 2.85l-8.91-5.92V38.12c2.24-1.57 6.89-4.8 9.13-6.37-3.52-1.87-6.51-4.19-8.31-6.44v-.83c5.32-2.99 9.06-5.76 12.28-8.69h.67s10.94 5.17 11.46 5.39c.6.3 1.05.45 1.65.45.75 0 1.42-.23 2.17-.6v1.21c-.82.6-1.72 1.72-1.72 3.37v19.46c0 2.02 1.8 3.37 3.15 3.67l2.32-2.32.68.82-8.24 8.39h-.52c-3.22-.9-6.82-3.97-7.42-7.64L335 55.65h-.53zM280.51 46.68V26.46l-7.41-3.22v22.99l4.64 3.07 2.77-2.62zm3.44-22.46l-10.86-4.57v2.4l8.54 3.67v22.17c0 4.8 2.1 9.99 5.32 13.96l1.72-1.72c-2.77-3.67-4.72-7.82-4.72-12.61v-23.3zm-11.61 30.25l1.8-1.64-7.79-5.02V24.06l-2.25 1.58v23.3l8.24 5.53zm-3.14 9.46c-2.85 0-5.39 1.33-6.89 3.28v.39c1.72-.97 3.74-1.57 6.89-1.57 3.82 0 8.69 1.05 11.46 2.62l1.5-1.79c-3.22-1.65-7.94-2.93-12.96-2.93m-6.29-14.4V24.96l13.03-9.06h.75c2.55 1.05 10.86 4.64 11.91 5.09.38.15.9.3 1.35.3.75 0 1.64-.3 2.47-.67v1.36c-.75.67-1.8 2.17-1.8 3.37v20.81c0 4.87 1.05 7.74 3 9.69v.82c-2.85 2.92-9.51 9.73-12.43 13.33h-.53c-2.77-1.57-7.56-2.85-11.46-2.85-2.85 0-6.14.75-8.61 2.7l-.6-.52c2.25-5.24 7.04-10.49 13.11-10.49 3.82 0 8.76 1.57 13.03 3.9-2.92-3.3-5.54-9.39-5.62-14.48l-7.72 7.41h-.6l-9.28-6.14zM379.09 22.26l3.97 3.9v21.35l2.32-1.28V24.96l-4.49-4.49-1.8 1.79zm1.64 32.96c.38-.6 1.2-1.42 1.65-1.87l-7.94-1.65v2.18l6.29 1.34zm1.13-7.64V26.53l-3.52-3.59-3.89 3.67v19.55c1.72.37 6.51 1.27 7.41 1.42m-16.41 14.48l-1.57 1.5 5.92 5.1 1.8-1.57-4.64-3.89.82-.82v-38l-3.3-3.29-1.65 1.65 2.62 2.7v36.62zm8.99-37.02l9.59-9.14h.67c.67.67 5.1 4.64 5.77 5.09.38.22.9.3 1.28.3.82 0 1.42-.3 2.02-.6v1.36c-.75.59-1.72 2.02-1.72 3.59v23.51c-4.12.97-7.42 3.22-10.93 7.34h-.3l-6.36-1.35v5.2l3.29 2.99-7.79 6.52h-.37l-7.34-6.21 1.95-2.1v-8.71c-.75-.15-2.27-.38-3.01-.6v-1.08c.9-.38 3.16-2.61 3.16-4.48V25.86l-2.32-2.32-2.4 2.4-.82-.75L368 15.9h.68l5.77 5.69v3.45zM22.85 36.4l-.06-10.19-2.26 1.57v9.51c0 1.05-.23 1.87-.52 2.62l.29.01c1.41-.92 2.55-2.3 2.55-3.52M11.11 20.37c-3.3 3.3-6.37 7.87-6.37 13.71 0 13.85 9.34 20.82 21.1 20.82 7.34 0 12.46-3.97 15.46-6.97l-.2-.3c-3.44 2.77-8.14 5.03-15.26 5.03-9.51 0-18.7-5.84-18.7-18.57 0-5.09 1.83-10.07 4.23-13.45l-.26-.27zm25.31-5.39c-8.84 0-16.78-4.34-23.22-4.34-4.12 0-8.9 1.68-10.6 6.47l.26.12c1.94-3.3 6.36-4.35 10.33-4.35 6.44 0 14.38 4.35 23.22 4.35 7.11 0 11.23-2.4 11.91-8.09l-.37-.06c-1.04 4.34-4.42 5.9-11.53 5.9M3.54 34.08c0-9.36 7.12-15.88 13.71-18.8l.45.6c-2.4 2.77-4.12 5.47-4.12 11.16 0 6.52 1.72 11.01 4.42 14.01.9-.97 1.42-2.62 1.42-3.97v-9.74l11.91-8.53.52.67c-1.05 1.5-1.65 2.85-1.65 5.17v6.21c0 4.35-7.12 8.99-11.54 10.78 2.92 2.85 7.04 4.05 11.46 4.05 1.65 0 3.07-.07 4.42-.3V18.2c-3.89-.22-7.57-1.27-10.93-2.17-3.6-1.05-7.27-2.02-10.41-2.02-4.8 0-10.64 1.65-10.71 8.61 0 .6.07 1.27.15 2.03l-.9.29C.91 22.77.46 20.67.46 18.57.4 10.11 6.61 2.7 16.57 2.7c4.19 0 8.16 1.05 11.61 2.02 3.74 1.05 7.41 2.02 11.16 2.02 1.87 0 2.99-.97 2.99-2.77s-.9-2.69-2.32-3.07l.16-.9c4.27.75 8.98 3.3 8.98 8.69 0 6.51-4.71 9.58-12.65 9.58h-.82v26.96c5.24-.97 8.68-3.44 11.3-7.56l.82.45c-2.92 9.21-9.73 17.97-21.86 17.97-12.36 0-22.4-7.18-22.4-22.01M153.34 36.4l-.06-10.19-2.26 1.57v9.51c0 1.05-.23 1.87-.52 2.62l.28.01c1.42-.92 2.56-2.3 2.56-3.52m-11.75-16.03c-3.3 3.3-6.37 7.87-6.37 13.71 0 13.85 9.34 20.82 21.1 20.82 7.34 0 12.46-3.97 15.45-6.97l-.2-.3c-3.44 2.77-8.14 5.03-15.25 5.03-9.51 0-18.7-5.84-18.7-18.57 0-5.09 1.83-10.07 4.23-13.45l-.26-.27zm25.31-5.39c-8.84 0-16.78-4.34-23.22-4.34-4.12 0-8.9 1.68-10.6 6.47l.26.12c1.95-3.3 6.37-4.35 10.33-4.35 6.44 0 14.38 4.35 23.22 4.35 7.12 0 11.23-2.4 11.91-8.09l-.37-.06c-1.03 4.34-4.41 5.9-11.53 5.9m-32.88 19.1c0-9.36 7.12-15.88 13.71-18.8l.45.6c-2.4 2.77-4.12 5.47-4.12 11.16 0 6.52 1.72 11.01 4.42 14.01.9-.97 1.42-2.62 1.42-3.97v-9.74l11.91-8.53.52.67c-1.05 1.5-1.65 2.85-1.65 5.17v6.21c0 4.35-7.12 8.99-11.54 10.78 2.92 2.85 7.04 4.05 11.46 4.05 1.65 0 3.07-.07 4.42-.3V18.2c-3.89-.22-7.57-1.27-10.93-2.17-3.6-1.05-7.27-2.02-10.41-2.02-4.8 0-10.64 1.65-10.71 8.61 0 .6.07 1.27.15 2.03l-.9.29c-.83-2.17-1.28-4.27-1.28-6.37-.07-8.46 6.14-15.88 16.1-15.88 4.19 0 8.16 1.05 11.61 2.02 3.74 1.05 7.41 2.02 11.16 2.02 1.87 0 2.99-.97 2.99-2.77s-.9-2.69-2.32-3.07l.15-.9c4.27.75 8.98 3.3 8.98 8.69 0 6.51-4.71 9.58-12.65 9.58h-.82v26.96c5.24-.97 8.69-3.44 11.31-7.56l.82.45c-2.92 9.21-9.73 17.97-21.86 17.97-12.34.01-22.39-7.17-22.39-22&quot;&gt;&lt;/path&gt;&lt;/svg&gt;&lt;svg class=&quot;col-span-2 md:max-h-12 w-full object-contain lg:col-span-1&quot; width=&quot;158&quot; height=&quot;48&quot; aria-hidden=&quot;true&quot; tabindex=&quot;-1&quot; viewBox=&quot;0 0 156 21&quot; xmlns=&quot;http://www.w3.org/2000/svg&quot;&gt;&lt;g fill=&quot;none&quot; fill-rule=&quot;evenodd&quot; data-testid=&quot;at-logo-cars&quot;&gt;&lt;path d=&quot;M-3-7h162v36H-3&quot;&gt;&lt;/path&gt;&lt;path fill=&quot;#222B5E&quot; d=&quot;M46.364 5.897v7.6c0 1.01.217 1.772.651 2.286.434.514 1.077.771 1.928.771.85 0 1.493-.257 1.927-.77.398-.472.614-1.152.647-2.04l.004-.247v-7.6h3.191v7.812c0 1.702-.532 3.062-1.595 4.081-1.064 1.02-2.455 1.53-4.174 1.53-1.72 0-3.11-.51-4.174-1.53-1.001-.959-1.531-2.22-1.59-3.784l-.005-.297V5.897h3.19zm26.767-.695c1.95 0 3.58.634 4.892 1.9 1.238 1.198 1.892 2.73 1.961 4.6l.006.332v.479c0 2.003-.656 3.638-1.967 4.905-1.312 1.268-2.942 1.901-4.892 1.901-1.95 0-3.567-.629-4.852-1.888-1.214-1.188-1.854-2.717-1.921-4.585l-.006-.333v-.479c0-2.02.642-3.664 1.927-4.931 1.285-1.267 2.902-1.901 4.852-1.901zm66.277 0c1.861 0 3.385.62 4.573 1.861 1.187 1.24 1.78 2.854 1.78 4.839 0 .195-.004.407-.012.638l-.017.352-.023.365h-9.625c.142 1.082.514 1.924 1.117 2.526.603.603 1.382.904 2.34.904.762 0 1.373-.133 1.834-.399a2.46 2.46 0 0 0 .723-.644l.12-.168h3.258c-.373 1.154-1.038 2.064-2 2.726-1.082.745-2.429 1.117-4.042 1.117-1.896 0-3.478-.647-4.745-1.94-1.197-1.222-1.829-2.745-1.895-4.568l-.006-.325v-.425c0-1.967.633-3.602 1.9-4.905 1.268-1.303 2.84-1.954 4.72-1.954zM130.65.46v18.434h-2.472l-.452-1.49h-.053a4.652 4.652 0 0 1-1.874 1.45c-.736.31-1.6.465-2.593.465-1.719 0-3.19-.638-4.413-1.914-1.15-1.201-1.76-2.693-1.828-4.475l-.006-.337v-.505c0-2.02.607-3.673 1.821-4.959 1.214-1.284 2.778-1.927 4.692-1.927.886 0 1.644.12 2.273.359.55.21 1.037.517 1.459.923l.177.18h.053V.46h3.216zm-22.963 4.742c.868 0 1.661.16 2.379.478.628.28 1.219.688 1.773 1.225l.235.238h.052l.532-1.542h2.34v13.293h-2.5l-.504-1.596h-.054a4.365 4.365 0 0 1-1.807 1.49c-.745.336-1.595.504-2.553.504-1.737 0-3.203-.628-4.4-1.887-1.125-1.184-1.722-2.683-1.788-4.495l-.006-.344v-.478c0-1.985.593-3.63 1.781-4.932 1.187-1.303 2.694-1.954 4.52-1.954zm-46.32-2.958v3.004h3.378v2.499h-3.377v7.212c0 .496.12.868.36 1.117.238.248.606.372 1.102.372.32 0 .63-.049.93-.146.242-.078.488-.193.74-.345l.191-.121h.452v2.632c-.319.178-.753.333-1.303.466-.55.133-1.01.2-1.382.2-1.436 0-2.517-.373-3.243-1.118-.679-.695-1.04-1.714-1.086-3.056l-.005-.293v-6.92h-1.808V6.284c.851-.407 1.56-.92 2.127-1.541.505-.552.96-1.271 1.366-2.159l.15-.34h1.409zM91.86 1.26v2.898h-4.892v14.736h-3.35V4.158h-5.104V1.26H91.86zm7.298 4.234a8.869 8.869 0 0 1 .974.067l.09.013v3.164h-1.197c-1.187 0-2.043.261-2.565.784-.489.488-.749 1.397-.781 2.726l-.004.292v6.354h-3.217V5.6h2.287l.69 2.552h.054a3.112 3.112 0 0 1 1.276-1.941c.673-.479 1.471-.718 2.393-.718zm55.523 0a8.398 8.398 0 0 1 .974.066l.09.014v3.164h-1.197c-1.187 0-2.043.262-2.565.784-.488.488-.749 1.397-.781 2.727l-.004.29v6.355h-3.217V5.6h2.287l.691 2.552h.053a3.11 3.11 0 0 1 1.276-1.94c.674-.48 1.471-.719 2.393-.719zM35.332 1.613l6.806 16.855v.426h-3.43l-1.329-3.51-.282-.75h-7.171l-.284.753-1.329 3.507h-3.296v-.426l6.806-16.855h3.51zM22.128 11.717l-1.577 3.905c-.799 1.9-2.593 3.238-4.668 3.268L.26 18.894l2.898-7.177h18.97zm86.064-3.91c-1.153 0-2.047.399-2.685 1.197-.638.797-.957 1.879-.957 3.243 0 1.365.319 2.442.957 3.23.638.79 1.532 1.184 2.685 1.184 1.134 0 2.025-.395 2.672-1.184.647-.788.97-1.865.97-3.23 0-1.364-.323-2.446-.97-3.243-.647-.798-1.538-1.197-2.672-1.197zm15.653 0c-1.153 0-2.047.399-2.686 1.197-.638.797-.957 1.879-.957 3.243 0 1.365.32 2.442.957 3.23.639.79 1.533 1.184 2.686 1.184 1.134 0 2.024-.395 2.672-1.184.646-.788.97-1.865.97-3.23 0-1.364-.324-2.446-.97-3.243-.648-.798-1.538-1.197-2.672-1.197zm-50.687.053c-1.117 0-1.99.395-2.619 1.184-.63.788-.944 1.856-.944 3.203 0 1.347.314 2.415.944 3.204.629.789 1.502 1.183 2.619 1.183 1.116 0 1.994-.394 2.632-1.183.638-.789.957-1.857.957-3.204 0-1.347-.32-2.415-.957-3.203-.638-.789-1.516-1.184-2.632-1.184zM33.55 4.91h-.053c-.071.301-.169.633-.293.996-.11.323-.284.797-.52 1.42l-.091.242-1.572 4.164h4.986l-1.553-4.164a132.1 132.1 0 0 1-.705-1.98 9.376 9.376 0 0 1-.2-.679zm105.963 2.924c-.886 0-1.608.24-2.167.718-.507.435-.88 1.075-1.116 1.92l-.067.26h6.301c-.053-.904-.341-1.613-.864-2.127-.523-.514-1.219-.771-2.087-.771z&quot;&gt;&lt;/path&gt;&lt;path fill=&quot;#b11212&quot; d=&quot;M26.209 1.613l-15.623.002c-2.075.031-3.868 1.368-4.668 3.267L4.341 8.789h18.97l2.898-7.176z&quot;&gt;&lt;/path&gt;&lt;/g&gt;&lt;/svg&gt;&lt;/div&gt;&lt;/div&gt;&lt;/div&gt;&lt;div class=&quot;py-12&quot; style=&quot;box-sizing: border-box; border-width: 0px; border-style: solid; border-color: rgb(229, 231, 235); --tw-border-spacing-x: 0; --tw-border-spacing-y: 0; --tw-translate-x: 0; --tw-translate-y: 0; --tw-rotate: 0; --tw-skew-x: 0; --tw-skew-y: 0; --tw-scale-x: 1; --tw-scale-y: 1; --tw-pan-x: ; --tw-pan-y: ; --tw-pinch-zoom: ; --tw-scroll-snap-strictness: proximity; --tw-gradient-from-position: ; --tw-gradient-via-position: ; --tw-gradient-to-position: ; --tw-ordinal: ; --tw-slashed-zero: ; --tw-numeric-figure: ; --tw-numeric-spacing: ; --tw-numeric-fraction: ; --tw-ring-inset: ; --tw-ring-offset-width: 0px; --tw-ring-offset-color: #fff; --tw-ring-color: rgb(59 130 246 / .5); --tw-ring-offset-shadow: 0 0 #0000; --tw-ring-shadow: 0 0 #0000; --tw-shadow: 0 0 #0000; --tw-shadow-colored: 0 0 #0000; --tw-blur: ; --tw-brightness: ; --tw-contrast: ; --tw-grayscale: ; --tw-hue-rotate: ; --tw-invert: ; --tw-saturate: ; --tw-sepia: ; --tw-drop-shadow: ; --tw-backdrop-blur: ; --tw-backdrop-brightness: ; --tw-backdrop-contrast: ; --tw-backdrop-grayscale: ; --tw-backdrop-hue-rotate: ; --tw-backdrop-invert: ; --tw-backdrop-opacity: ; --tw-backdrop-saturate: ; --tw-backdrop-sepia: ; padding-top: 3rem; padding-bottom: 3rem; color: rgb(0, 0, 0); font-family: Poppins, ui-sans-serif, system-ui, sans-serif, &amp;quot;Apple Color Emoji&amp;quot;, &amp;quot;Segoe UI Emoji&amp;quot;, &amp;quot;Segoe UI Symbol&amp;quot;, &amp;quot;Noto Color Emoji&amp;quot;; font-size: medium; font-style: normal; font-variant-ligatures: normal; font-variant-caps: normal; font-weight: 400; letter-spacing: normal; orphans: 2; text-align: start; text-indent: 0px; text-transform: none; widows: 2; word-spacing: 0px; -webkit-text-stroke-width: 0px; white-space: normal; background-color: rgb(255, 255, 255); text-decoration-thickness: initial; text-decoration-style: initial; text-decoration-color: initial;&quot;&gt;&lt;div class=&quot;mx-auto max-w-7xl px-6 lg:px-8&quot; style=&quot;box-sizing: border-box; border-width: 0px; border-style: solid; border-color: rgb(229, 231, 235); --tw-border-spacing-x: 0; --tw-border-spacing-y: 0; --tw-translate-x: 0; --tw-translate-y: 0; --tw-rotate: 0; --tw-skew-x: 0; --tw-skew-y: 0; --tw-scale-x: 1; --tw-scale-y: 1; --tw-pan-x: ; --tw-pan-y: ; --tw-pinch-zoom: ; --tw-scroll-snap-strictness: proximity; --tw-gradient-from-position: ; --tw-gradient-via-position: ; --tw-gradient-to-position: ; --tw-ordinal: ; --tw-slashed-zero: ; --tw-numeric-figure: ; --tw-numeric-spacing: ; --tw-numeric-fraction: ; --tw-ring-inset: ; --tw-ring-offset-width: 0px; --tw-ring-offset-color: #fff; --tw-ring-color: rgb(59 130 246 / .5); --tw-ring-offset-shadow: 0 0 #0000; --tw-ring-shadow: 0 0 #0000; --tw-shadow: 0 0 #0000; --tw-shadow-colored: 0 0 #0000; --tw-blur: ; --tw-brightness: ; --tw-contrast: ; --tw-grayscale: ; --tw-hue-rotate: ; --tw-invert: ; --tw-saturate: ; --tw-sepia: ; --tw-drop-shadow: ; --tw-backdrop-blur: ; --tw-backdrop-brightness: ; --tw-backdrop-contrast: ; --tw-backdrop-grayscale: ; --tw-backdrop-hue-rotate: ; --tw-backdrop-invert: ; --tw-backdrop-opacity: ; --tw-backdrop-saturate: ; --tw-backdrop-sepia: ; margin-left: auto; margin-right: auto; max-width: 80rem; padding-left: 2rem; padding-right: 2rem;&quot;&gt;&lt;div class=&quot;mx-auto max-w-6xl lg:mx-0&quot; style=&quot;box-sizing: border-box; border-width: 0px; border-style: solid; border-color: rgb(229, 231, 235); --tw-border-spacing-x: 0; --tw-border-spacing-y: 0; --tw-translate-x: 0; --tw-translate-y: 0; --tw-rotate: 0; --tw-skew-x: 0; --tw-skew-y: 0; --tw-scale-x: 1; --tw-scale-y: 1; --tw-pan-x: ; --tw-pan-y: ; --tw-pinch-zoom: ; --tw-scroll-snap-strictness: proximity; --tw-gradient-from-position: ; --tw-gradient-via-position: ; --tw-gradient-to-position: ; --tw-ordinal: ; --tw-slashed-zero: ; --tw-numeric-figure: ; --tw-numeric-spacing: ; --tw-numeric-fraction: ; --tw-ring-inset: ; --tw-ring-offset-width: 0px; --tw-ring-offset-color: #fff; --tw-ring-color: rgb(59 130 246 / .5); --tw-ring-offset-shadow: 0 0 #0000; --tw-ring-shadow: 0 0 #0000; --tw-shadow: 0 0 #0000; --tw-shadow-colored: 0 0 #0000; --tw-blur: ; --tw-brightness: ; --tw-contrast: ; --tw-grayscale: ; --tw-hue-rotate: ; --tw-invert: ; --tw-saturate: ; --tw-sepia: ; --tw-drop-shadow: ; --tw-backdrop-blur: ; --tw-backdrop-brightness: ; --tw-backdrop-contrast: ; --tw-backdrop-grayscale: ; --tw-backdrop-hue-rotate: ; --tw-backdrop-invert: ; --tw-backdrop-opacity: ; --tw-backdrop-saturate: ; --tw-backdrop-sepia: ; margin-left: 0px; margin-right: 0px; max-width: 72rem;&quot;&gt;&lt;br class=&quot;Apple-interchange-newline&quot;&gt;&lt;/div&gt;&lt;/div&gt;&lt;/div&gt;" link="&lt;div class=&quot;bg-gray-50 py-8 md:py-12&quot; style=&quot;box-sizing: border-box; border-width: 0px; border-style: solid; border-color: rgb(229, 231, 235); --tw-border-spacing-x: 0; --tw-border-spacing-y: 0; --tw-translate-x: 0; --tw-translate-y: 0; --tw-rotate: 0; --tw-skew-x: 0; --tw-skew-y: 0; --tw-scale-x: 1; --tw-scale-y: 1; --tw-pan-x: ; --tw-pan-y: ; --tw-pinch-zoom: ; --tw-scroll-snap-strictness: proximity; --tw-gradient-from-position: ; --tw-gradient-via-position: ; --tw-gradient-to-position: ; --tw-ordinal: ; --tw-slashed-zero: ; --tw-numeric-figure: ; --tw-numeric-spacing: ; --tw-numeric-fraction: ; --tw-ring-inset: ; --tw-ring-offset-width: 0px; --tw-ring-offset-color: #fff; --tw-ring-color: rgb(59 130 246 / .5); --tw-ring-offset-shadow: 0 0 #0000; --tw-ring-shadow: 0 0 #0000; --tw-shadow: 0 0 #0000; --tw-shadow-colored: 0 0 #0000; --tw-blur: ; --tw-brightness: ; --tw-contrast: ; --tw-grayscale: ; --tw-hue-rotate: ; --tw-invert: ; --tw-saturate: ; --tw-sepia: ; --tw-drop-shadow: ; --tw-backdrop-blur: ; --tw-backdrop-brightness: ; --tw-backdrop-contrast: ; --tw-backdrop-grayscale: ; --tw-backdrop-hue-rotate: ; --tw-backdrop-invert: ; --tw-backdrop-opacity: ; --tw-backdrop-saturate: ; --tw-backdrop-sepia: ; --tw-bg-opacity: 1; background-color: rgb(249 250 251 / var(--tw-bg-opacity)); padding-top: 3rem; padding-bottom: 3rem; color: rgb(0, 0, 0); font-family: Poppins, ui-sans-serif, system-ui, sans-serif, &amp;quot;Apple Color Emoji&amp;quot;, &amp;quot;Segoe UI Emoji&amp;quot;, &amp;quot;Segoe UI Symbol&amp;quot;, &amp;quot;Noto Color Emoji&amp;quot;; font-size: medium; font-style: normal; font-variant-ligatures: normal; font-variant-caps: normal; font-weight: 400; letter-spacing: normal; orphans: 2; text-align: start; text-indent: 0px; text-transform: none; widows: 2; word-spacing: 0px; -webkit-text-stroke-width: 0px; white-space: normal; text-decoration-thickness: initial; text-decoration-style: initial; text-decoration-color: initial;&quot;&gt;&lt;div class=&quot;mx-auto max-w-7xl&quot; style=&quot;box-sizing: border-box; border-width: 0px; border-style: solid; border-color: rgb(229, 231, 235); --tw-border-spacing-x: 0; --tw-border-spacing-y: 0; --tw-translate-x: 0; --tw-translate-y: 0; --tw-rotate: 0; --tw-skew-x: 0; --tw-skew-y: 0; --tw-scale-x: 1; --tw-scale-y: 1; --tw-pan-x: ; --tw-pan-y: ; --tw-pinch-zoom: ; --tw-scroll-snap-strictness: proximity; --tw-gradient-from-position: ; --tw-gradient-via-position: ; --tw-gradient-to-position: ; --tw-ordinal: ; --tw-slashed-zero: ; --tw-numeric-figure: ; --tw-numeric-spacing: ; --tw-numeric-fraction: ; --tw-ring-inset: ; --tw-ring-offset-width: 0px; --tw-ring-offset-color: #fff; --tw-ring-color: rgb(59 130 246 / .5); --tw-ring-offset-shadow: 0 0 #0000; --tw-ring-shadow: 0 0 #0000; --tw-shadow: 0 0 #0000; --tw-shadow-colored: 0 0 #0000; --tw-blur: ; --tw-brightness: ; --tw-contrast: ; --tw-grayscale: ; --tw-hue-rotate: ; --tw-invert: ; --tw-saturate: ; --tw-sepia: ; --tw-drop-shadow: ; --tw-backdrop-blur: ; --tw-backdrop-brightness: ; --tw-backdrop-contrast: ; --tw-backdrop-grayscale: ; --tw-backdrop-hue-rotate: ; --tw-backdrop-invert: ; --tw-backdrop-opacity: ; --tw-backdrop-saturate: ; --tw-backdrop-sepia: ; margin-left: auto; margin-right: auto; max-width: 80rem;&quot;&gt;&lt;h2 class=&quot;text-center text-xl md:text-2xl font-semibold leading-8 text-gray-900 mx-4 md:mx-0 font-body&quot; style=&quot;box-sizing: border-box; border-width: 0px; border-style: solid; border-color: rgb(229, 231, 235); --tw-border-spacing-x: 0; --tw-border-spacing-y: 0; --tw-translate-x: 0; --tw-translate-y: 0; --tw-rotate: 0; --tw-skew-x: 0; --tw-skew-y: 0; --tw-scale-x: 1; --tw-scale-y: 1; --tw-pan-x: ; --tw-pan-y: ; --tw-pinch-zoom: ; --tw-scroll-snap-strictness: proximity; --tw-gradient-from-position: ; --tw-gradient-via-position: ; --tw-gradient-to-position: ; --tw-ordinal: ; --tw-slashed-zero: ; --tw-numeric-figure: ; --tw-numeric-spacing: ; --tw-numeric-fraction: ; --tw-ring-inset: ; --tw-ring-offset-width: 0px; --tw-ring-offset-color: #fff; --tw-ring-color: rgb(59 130 246 / .5); --tw-ring-offset-shadow: 0 0 #0000; --tw-ring-shadow: 0 0 #0000; --tw-shadow: 0 0 #0000; --tw-shadow-colored: 0 0 #0000; --tw-blur: ; --tw-brightness: ; --tw-contrast: ; --tw-grayscale: ; --tw-hue-rotate: ; --tw-invert: ; --tw-saturate: ; --tw-sepia: ; --tw-drop-shadow: ; --tw-backdrop-blur: ; --tw-backdrop-brightness: ; --tw-backdrop-contrast: ; --tw-backdrop-grayscale: ; --tw-backdrop-hue-rotate: ; --tw-backdrop-invert: ; --tw-backdrop-opacity: ; --tw-backdrop-saturate: ; --tw-backdrop-sepia: ; font-size: 1.5rem; font-weight: 600; margin: 0px; text-align: center; font-family: Inter, system-ui, sans; line-height: 2rem; --tw-text-opacity: 1; color: rgb(17 24 39 / var(--tw-text-opacity));&quot;&gt;Mis-sold car finance claims have been featured in&lt;/h2&gt;&lt;div class=&quot;mx-auto mt-8 md:mt-10 md:mb-8 grid max-w-lg grid-cols-4 items-center gap-x-8 gap-y-10 sm:max-w-xl sm:grid-cols-4 sm:gap-x-20 lg:max-w-none lg:grid-cols-4 px-8 md:mx-auto lg:mx-0&quot; style=&quot;box-sizing: border-box; border-width: 0px; border-style: solid; border-color: rgb(229, 231, 235); --tw-border-spacing-x: 0; --tw-border-spacing-y: 0; --tw-translate-x: 0; --tw-translate-y: 0; --tw-rotate: 0; --tw-skew-x: 0; --tw-skew-y: 0; --tw-scale-x: 1; --tw-scale-y: 1; --tw-pan-x: ; --tw-pan-y: ; --tw-pinch-zoom: ; --tw-scroll-snap-strictness: proximity; --tw-gradient-from-position: ; --tw-gradient-via-position: ; --tw-gradient-to-position: ; --tw-ordinal: ; --tw-slashed-zero: ; --tw-numeric-figure: ; --tw-numeric-spacing: ; --tw-numeric-fraction: ; --tw-ring-inset: ; --tw-ring-offset-width: 0px; --tw-ring-offset-color: #fff; --tw-ring-color: rgb(59 130 246 / .5); --tw-ring-offset-shadow: 0 0 #0000; --tw-ring-shadow: 0 0 #0000; --tw-shadow: 0 0 #0000; --tw-shadow-colored: 0 0 #0000; --tw-blur: ; --tw-brightness: ; --tw-contrast: ; --tw-grayscale: ; --tw-hue-rotate: ; --tw-invert: ; --tw-saturate: ; --tw-sepia: ; --tw-drop-shadow: ; --tw-backdrop-blur: ; --tw-backdrop-brightness: ; --tw-backdrop-contrast: ; --tw-backdrop-grayscale: ; --tw-backdrop-hue-rotate: ; --tw-backdrop-invert: ; --tw-backdrop-opacity: ; --tw-backdrop-saturate: ; --tw-backdrop-sepia: ; margin: 2.5rem 0px 2rem; display: grid; max-width: none; grid-template-columns: repeat(4, minmax(0px, 1fr)); align-items: center; gap: 2.5rem 5rem; padding-left: 2rem; padding-right: 2rem;&quot;&gt;&lt;svg class=&quot;col-span-2 max-h-6 md:max-h-10 w-full object-contain lg:col-span-1&quot; width=&quot;158&quot; height=&quot;42&quot; aria-hidden=&quot;true&quot; tabindex=&quot;-1&quot; viewBox=&quot;0 0 112 32&quot; xmlns=&quot;http://www.w3.org/2000/svg&quot;&gt;&lt;path d=&quot;M111.99999,4.44444577e-05 L111.99999,32.0000444 L79.9999905,32.0000444 L79.9999905,4.44444577e-05 L111.99999,4.44444577e-05 Z M72.0000119,-3.55271368e-15 L72.0000119,32 L40.0000119,32 L40.0000119,-3.55271368e-15 L72.0000119,-3.55271368e-15 Z M32,-3.55271368e-15 L32,32 L-1.13686838e-13,32 L-1.13686838e-13,-3.55271368e-15 L32,-3.55271368e-15 Z M97.469329,6.80826869 C96.0294397,6.80826869 94.7294393,7.02226876 93.5693278,7.44982444 C92.4089942,7.87782457 91.4137717,8.49471364 90.5841047,9.30049166 C89.7538823,10.1067141 89.1188821,11.07327 88.6785486,12.199937 C88.2378818,13.3269373 88.0177706,14.5896043 88.0177706,15.9876048 C88.0177706,17.4188274 88.2296596,18.7062722 88.6531042,19.8493837 C89.0763265,20.9929396 89.6861045,21.9591621 90.482438,22.748829 C91.2784383,23.5383848 92.2522163,24.1430516 93.4042167,24.5624962 C94.5558837,24.9819408 95.8516619,25.1917186 97.2914401,25.1917186 C98.3752182,25.1917186 99.4086629,25.072163 100.391219,24.8338296 C101.37333,24.5956073 102.237108,24.2706072 102.982664,23.8592738 L102.982664,23.8592738 L102.982664,20.4292727 C101.40733,21.4001619 99.6881074,21.8851621 97.8251069,21.8851621 C96.6054399,21.8851621 95.567884,21.6549398 94.7126615,21.194273 C93.8572168,20.7338284 93.2049944,20.0633837 92.7564387,19.1831613 C92.3073275,18.3032721 92.0831052,17.2380496 92.0831052,15.9876048 C92.0831052,14.7377155 92.3156608,13.6766041 92.7816609,12.8044927 C93.2474389,11.9327147 93.916328,11.2664922 94.7888838,10.8058254 C95.6609951,10.3453809 96.715551,10.1148252 97.9521069,10.1148252 C98.8496628,10.1148252 99.7052186,10.2342697 100.518108,10.4726031 C101.331219,10.7112699 102.084664,11.0609366 102.779442,11.5212701 L102.779442,11.5212701 L102.779442,8.01738016 C102.017219,7.62260227 101.191441,7.32260218 100.302219,7.11671323 C99.4129963,6.91126872 98.4685515,6.80826869 97.469329,6.80826869 Z M55.7552388,7.00000208 L49.0000146,7.00000208 L49.0000146,25.0000021 L56.1713501,25.0000021 C57.590906,25.0000021 58.8063508,24.7903407 59.8181289,24.3706739 C60.8297959,23.9513405 61.6087961,23.3553403 62.1555741,22.5832289 C62.7020187,21.8114509 62.9754632,20.8882284 62.9754632,19.8140059 C62.9754632,18.7232278 62.6941298,17.7960053 62.1312407,17.0321162 C61.5681294,16.2686715 60.7563514,15.7104491 59.6957955,15.3580046 C60.4625736,14.9891156 61.0420182,14.4894488 61.4335738,13.8601152 C61.8252406,13.2307817 62.0210185,12.4881148 62.0210185,11.6321146 C62.0210185,10.1385586 61.4742405,8.99311379 60.3812402,8.19578022 C59.2877954,7.39889109 57.745795,7.00000208 55.7552388,7.00000208 L55.7552388,7.00000208 Z M15.7552269,7.00000208 L9.00000268,7.00000208 L9.00000268,25.0000021 L16.1713381,25.0000021 C17.5908941,25.0000021 18.8062278,24.7903407 19.8182281,24.3706739 C20.8296729,23.9513405 21.6087842,23.3553403 22.1555621,22.5832289 C22.7021179,21.8114509 22.9755624,20.8882284 22.9755624,19.8140059 C22.9755624,18.7232278 22.6941179,17.7960053 22.1311177,17.0321162 C21.5682286,16.2686715 20.7563395,15.7104491 19.6957836,15.3580046 C20.4625616,14.9891156 21.0418952,14.4894488 21.4335619,13.8601152 C21.8252287,13.2307817 22.0210066,12.4881148 22.0210066,11.6321146 C22.0210066,10.1385586 21.4741175,8.99311379 20.3811172,8.19578022 C19.2877835,7.39889109 17.7457831,7.00000208 15.7552269,7.00000208 L15.7552269,7.00000208 Z M55.8775833,17.2209385 C58.1128062,17.2209385 59.2308065,18.0434943 59.2308065,19.6881614 C59.2308065,20.4602728 58.9369175,21.0518285 58.3496951,21.4629397 C57.7622505,21.8743843 56.9216947,22.0797177 55.8286944,22.0797177 L55.8286944,22.0797177 L52.6469157,22.0797177 L52.6469157,17.2209385 Z M15.8775714,17.2209385 C18.1129054,17.2209385 19.2307946,18.0434943 19.2307946,19.6881614 C19.2307946,20.4602728 18.9370167,21.0518285 18.3496832,21.4629397 C17.7622386,21.8743843 16.9216828,22.0797177 15.8286825,22.0797177 L15.8286825,22.0797177 L12.6469038,22.0797177 L12.6469038,17.2209385 Z M55.412572,9.92028073 C57.3541282,9.92028073 58.3252396,10.6338365 58.3252396,12.0600591 C58.3252396,12.7988371 58.0763506,13.373504 57.5786838,13.7846152 C57.0807948,14.1960598 56.3587946,14.4013932 55.412572,14.4013932 L55.412572,14.4013932 L52.6469046,14.4013932 L52.6469046,9.92028073 Z M15.4125601,9.92028073 C17.3541163,9.92028073 18.3252277,10.6338365 18.3252277,12.0600591 C18.3252277,12.7988371 18.0762276,13.373504 17.5786719,13.7846152 C17.0807829,14.1960598 16.3587826,14.4013932 15.4125601,14.4013932 L15.4125601,14.4013932 L12.6468927,14.4013932 L12.6468927,9.92028073 Z&quot;&gt;&lt;/path&gt;&lt;/svg&gt;&lt;svg class=&quot;col-span-2 max-h-6 md:max-h-10 w-full object-contain lg:col-span-1&quot; width=&quot;158&quot; height=&quot;40&quot; aria-hidden=&quot;true&quot; tabindex=&quot;-1&quot; viewBox=&quot;0 0 951 205&quot; xmlns=&quot;http://www.w3.org/2000/svg&quot;&gt;&lt;path fill=&quot;#000&quot; d=&quot;m198.8 3.3-23.7 122.9h-.3l-25-122.9h-47.4L77.7 126.2h-.3L53.8 3.3H0l45.7 198h54L125.1 80h.3l25.9 121.3h53.5l45.7-198zM856.4 135v-5.2c0-19.3 8.2-31.6 20.2-42.5l7-5.7c7.9-6.4 14.9-12.3 14.9-21.3 0-10.3-7-16.5-18-16.5-10.1 0-17.8 6.4-21.1 17.5l-.4 1.4h-49.3c3.6-40.5 34.4-62.7 75-62.7 38.8 0 66 22 66 54.5 0 22.2-12.4 33.3-23.3 43.2-13.2 12-19.6 21.2-19.8 32.1v5.2h-51.2Z&quot;&gt;&lt;/path&gt;&lt;path fill=&quot;#E81C30&quot; d=&quot;M907.5 201.3H795.7v-45.1h111.8z&quot;&gt;&lt;/path&gt;&lt;path d=&quot;M720.9 201.3V116c0-21-21-27-31.3-8a62.7 62.7 0 0 0-5.3 29.3v64.1h-50.7V3.3h50.7v86.4c16.9-35.8 56.6-40.4 76.3-18.6 7.1 7.9 11 19.3 11 34v96.2h-50.7ZM347.9 201.3V116c0-21-21-27-31.3-8a62.7 62.7 0 0 0-5.3 29.3v64.1h-50.7V3.3h50.7v86.4c16.9-35.8 56.6-40.4 76.3-18.6 7.1 7.9 11 19.3 11 34v96.2h-50.7ZM418.3 201.3V61.5H469v139.8h-50.7zM619.7 149.5c-2.1 31.5-25.9 55.4-63 55.4-44.6 0-72.4-28.2-72.4-73.5 0-44.6 28-73.4 71.4-73.4 34.1 0 60.6 17 63.4 55.2h-44c-1.9-9.4-7-19.2-19.3-19.2-19.4 0-22.6 24-22.6 37.4 0 16.4 4.5 37.2 22.5 37.2 9 0 15.9-7.1 19.3-19h44.7ZM443.6 52.2c-14 0-28.1-8.9-28.1-26C415.5 9 429.6 0 443.5 0c14 0 28.2 9 28.2 26.2 0 17.1-14.1 26-28.1 26Z&quot; fill=&quot;#000&quot;&gt;&lt;/path&gt;&lt;/svg&gt;&lt;svg class=&quot;col-span-2 md:max-h-12 w-full object-contain lg:col-span-1&quot; width=&quot;158&quot; height=&quot;48&quot; aria-hidden=&quot;true&quot; tabindex=&quot;-1&quot; viewBox=&quot;0 0 430 60&quot; xmlns=&quot;http://www.w3.org/2000/svg&quot;&gt;&lt;path d=&quot;M69.23 61.13c2.92-1.87 5.74-4.12 5.74-8.54V25.03l-4.42-4.64-1.72 1.72 3.82 4.04v26.44c0 3.67-1.35 6.37-3.6 8.24l.18.3zM52.35 2.71l-.07.3c1.27.53 2.85 1.8 2.85 4.35v40.59l-1.57 1.57 6.14 5.17 1.8-1.5-4.94-4.04.9-.82V7.73c-.02-3.22-2.94-4.79-5.11-5.02m3.67 61.19c7.79-.6 15.51-3.22 15.51-11.46V26.45L68 22.86l-3.9 3.82v19.54l3.22 2.92-7.41 6.59h-.67l-7.27-6.22 1.95-1.94V7.81c0-3-2.55-4.57-4.12-4.94v-.68c.68-.38 1.8-.6 3.23-.6 2.47 0 4.79 1.5 5.46 3.14h.22c1.5-2.25 3.9-3.14 6.22-3.22.68 0 1.5.08 2.32.3v.82C65.98 3 64.1 4.58 64.1 8.55V25.1l9.59-9.21h.68c.67.67 4.86 4.49 5.69 5.02.38.23.9.37 1.35.37.83 0 1.35-.3 2.02-.6v1.05c-.75.67-1.72 1.95-1.72 3.6v22.54c0 9.96-10.93 16.03-25.69 17.08V63.9zM100.28 20.54l-1.95 1.35c2.24 2.62 5.09 6 7.94 9.14l2.02-1.35c-2.85-3.15-5.69-6.6-8.01-9.14m-2.25 15.95l7.19-4.87c-2.47-2.85-5.1-5.84-7.19-8.24v13.11zm4.64 16.63c-4.34-1.95-8.23-3.52-11.68-5.39.22-1.27.3-2.77.3-6.97v-16.4l-2.32 1.2v15.2c0 4.19-.08 6.89-.45 8.08 3.37 1.88 8.17 3.9 12.59 5.85l1.56-1.57zM87.85 24.88c4.27-2.1 10.7-5.92 14.97-8.99h.75c2.77 2.92 6.89 7.56 10.41 10.71v.82L98.03 37.84v6.44c1.65 1.05 6.29 3.37 9.06 4.34l6.44-6.21.75.82-12.95 12.51h-.75c-4.34-1.87-9.96-4.27-13.55-6.29.45-1.35.82-4.65.82-8.76V24.88zM415.33 61.04c2.92-1.87 5.73-4.13 5.73-8.54V24.94l-4.42-4.65-1.72 1.73 3.82 4.04V52.5c0 3.67-1.35 6.37-3.6 8.24l.19.3zM398.45 2.62l-.07.3c1.27.52 2.85 1.79 2.85 4.35v40.59l-1.57 1.57 6.14 5.17 1.8-1.5-4.94-4.04.9-.82V7.64c-.02-3.22-2.94-4.79-5.11-5.02m3.67 61.19c7.79-.6 15.51-3.22 15.51-11.46V26.36l-3.52-3.6-3.9 3.82v19.54l3.22 2.92-7.41 6.59h-.67l-7.27-6.22 1.95-1.94V7.71c0-3-2.55-4.57-4.12-4.94V2.1c.68-.37 1.8-.6 3.23-.6 2.47 0 4.79 1.5 5.46 3.14h.23c1.5-2.24 3.9-3.14 6.22-3.22.67 0 1.5.08 2.32.3v.82c-1.27.37-3.15 1.95-3.15 5.91V25l9.59-9.21h.68c.67.67 4.86 4.49 5.69 5.02.38.22.9.37 1.35.37.82 0 1.35-.3 2.02-.6v1.36c-.75.67-1.73 1.95-1.73 3.6v22.23c0 9.96-10.93 16.03-25.69 17.07v-1.03zM195.03 20.51l-1.94 1.35c2.24 2.62 5.09 5.99 7.93 9.14l2.02-1.35c-2.85-3.15-5.69-6.6-8.01-9.14M192.9 36.4l7.19-4.87c-2.47-2.85-5.09-5.84-7.19-8.24V36.4zm4.64 16.62c-4.34-1.95-8.24-3.52-11.68-5.39.22-1.27.3-2.77.3-6.97v-16.4l-2.32 1.2v15.2c0 4.2-.07 6.89-.45 8.09 3.37 1.88 8.16 3.9 12.58 5.84l1.57-1.57zm-14.82-28.23c4.27-2.1 10.71-5.92 14.98-8.99h.75c2.77 2.92 6.89 7.56 10.41 10.71v.82L192.9 37.74v6.44c1.65 1.05 6.29 3.37 9.06 4.34l6.44-6.21.75.82-12.95 12.52h-.75c-4.35-1.87-9.96-4.27-13.56-6.29.45-1.35.82-4.64.82-8.76V24.79zM222.33 52.87c-2.92-.82-5.77-2.7-5.77-6.74V9.81l-3.22-3.3-1.72 1.72 2.62 2.69v36.17c0 4.12 3.3 6.74 6.37 7.49l1.72-1.71zm.98-46.13v38.5c0 1.64 1.57 3.22 3.07 3.51l2.32-2.32.67.82-8.24 8.39h-.45c-3.14-.68-7.56-3.45-7.56-8.32V11.46l-2.32-2.32-2.4 2.4-.74-.75 9.21-9.28h.6l5.84 5.23zM245.4 20.45l-1.95 1.35c2.25 2.62 5.09 5.99 7.94 9.14l2.02-1.35c-2.84-3.16-5.69-6.6-8.01-9.14m-2.24 15.95l7.19-4.87c-2.47-2.85-5.09-5.84-7.19-8.24V36.4zm4.63 16.62c-4.34-1.95-8.23-3.52-11.68-5.39.22-1.27.3-2.77.3-6.97v-16.4l-2.32 1.2v15.2c0 4.2-.07 6.89-.45 8.09 3.37 1.88 8.16 3.9 12.58 5.84l1.57-1.57zm-14.83-28.23c4.27-2.1 10.71-5.92 14.98-8.99h.75c2.77 2.92 6.89 7.56 10.41 10.71v.82l-15.95 10.41v6.44c1.64 1.05 6.29 3.37 9.06 4.34l6.44-6.21.75.82-12.96 12.51h-.75c-4.34-1.87-9.96-4.27-13.56-6.29.45-1.35.82-4.64.82-8.76v-15.8zM313.88 22.99c1.27 1.2 3.07 2.92 4.57 4.19l1.51-1.74c-1.43-1.28-3.6-3.15-4.64-4.2l-1.44 1.75zm-3.89 29.88c-2.99-.82-5.84-2.69-5.84-6.74V24.12L301 20.89l-1.79 1.72 2.62 2.7V47.1c0 4.12 3.3 6.74 6.36 7.49l1.8-1.72zm.89-26.51v18.87c0 1.65 1.5 3.14 3.07 3.44l2.32-2.25.68.82-8.24 8.39h-.52c-3.07-.68-7.49-3.45-7.49-8.32V25.76l-2.32-2.32-2.4 2.4-.82-.75 9.21-9.29h.68l5.84 5.69v3.15l7.41-8.84h.68c1.5 1.5 3.82 3.74 5.84 5.24v.15l-6.21 7.41h-.15c-1.72-1.5-4.04-3.6-5.32-4.87l-2.26 2.63zM342.71 46.73V34.97c-2.32-.6-4.72-1.57-6.97-2.69v14.53l4.12 2.55 2.85-2.63zm9.29 6.22c-2.77-1.05-5.77-3.07-5.77-7.04V25.69l-11.08-5.55c-.3.22-1.58 1.13-1.95 1.42l10.71 5.55v19.7c0 3.82 3.52 6.74 6.37 7.79l1.72-1.65zm-9.29-19.1v-6.06l-10.49-5.54c-.75.6-3.6 2.33-4.49 2.77 2.48 3.29 8.99 7.33 14.98 8.83m-6.29 18.95l-7.41-4.94V37l-2.25 1.65v10.56l7.94 5.32 1.72-1.73zm-1.95 2.85l-8.91-5.92V38.12c2.24-1.57 6.89-4.8 9.13-6.37-3.52-1.87-6.51-4.19-8.31-6.44v-.83c5.32-2.99 9.06-5.76 12.28-8.69h.67s10.94 5.17 11.46 5.39c.6.3 1.05.45 1.65.45.75 0 1.42-.23 2.17-.6v1.21c-.82.6-1.72 1.72-1.72 3.37v19.46c0 2.02 1.8 3.37 3.15 3.67l2.32-2.32.68.82-8.24 8.39h-.52c-3.22-.9-6.82-3.97-7.42-7.64L335 55.65h-.53zM280.51 46.68V26.46l-7.41-3.22v22.99l4.64 3.07 2.77-2.62zm3.44-22.46l-10.86-4.57v2.4l8.54 3.67v22.17c0 4.8 2.1 9.99 5.32 13.96l1.72-1.72c-2.77-3.67-4.72-7.82-4.72-12.61v-23.3zm-11.61 30.25l1.8-1.64-7.79-5.02V24.06l-2.25 1.58v23.3l8.24 5.53zm-3.14 9.46c-2.85 0-5.39 1.33-6.89 3.28v.39c1.72-.97 3.74-1.57 6.89-1.57 3.82 0 8.69 1.05 11.46 2.62l1.5-1.79c-3.22-1.65-7.94-2.93-12.96-2.93m-6.29-14.4V24.96l13.03-9.06h.75c2.55 1.05 10.86 4.64 11.91 5.09.38.15.9.3 1.35.3.75 0 1.64-.3 2.47-.67v1.36c-.75.67-1.8 2.17-1.8 3.37v20.81c0 4.87 1.05 7.74 3 9.69v.82c-2.85 2.92-9.51 9.73-12.43 13.33h-.53c-2.77-1.57-7.56-2.85-11.46-2.85-2.85 0-6.14.75-8.61 2.7l-.6-.52c2.25-5.24 7.04-10.49 13.11-10.49 3.82 0 8.76 1.57 13.03 3.9-2.92-3.3-5.54-9.39-5.62-14.48l-7.72 7.41h-.6l-9.28-6.14zM379.09 22.26l3.97 3.9v21.35l2.32-1.28V24.96l-4.49-4.49-1.8 1.79zm1.64 32.96c.38-.6 1.2-1.42 1.65-1.87l-7.94-1.65v2.18l6.29 1.34zm1.13-7.64V26.53l-3.52-3.59-3.89 3.67v19.55c1.72.37 6.51 1.27 7.41 1.42m-16.41 14.48l-1.57 1.5 5.92 5.1 1.8-1.57-4.64-3.89.82-.82v-38l-3.3-3.29-1.65 1.65 2.62 2.7v36.62zm8.99-37.02l9.59-9.14h.67c.67.67 5.1 4.64 5.77 5.09.38.22.9.3 1.28.3.82 0 1.42-.3 2.02-.6v1.36c-.75.59-1.72 2.02-1.72 3.59v23.51c-4.12.97-7.42 3.22-10.93 7.34h-.3l-6.36-1.35v5.2l3.29 2.99-7.79 6.52h-.37l-7.34-6.21 1.95-2.1v-8.71c-.75-.15-2.27-.38-3.01-.6v-1.08c.9-.38 3.16-2.61 3.16-4.48V25.86l-2.32-2.32-2.4 2.4-.82-.75L368 15.9h.68l5.77 5.69v3.45zM22.85 36.4l-.06-10.19-2.26 1.57v9.51c0 1.05-.23 1.87-.52 2.62l.29.01c1.41-.92 2.55-2.3 2.55-3.52M11.11 20.37c-3.3 3.3-6.37 7.87-6.37 13.71 0 13.85 9.34 20.82 21.1 20.82 7.34 0 12.46-3.97 15.46-6.97l-.2-.3c-3.44 2.77-8.14 5.03-15.26 5.03-9.51 0-18.7-5.84-18.7-18.57 0-5.09 1.83-10.07 4.23-13.45l-.26-.27zm25.31-5.39c-8.84 0-16.78-4.34-23.22-4.34-4.12 0-8.9 1.68-10.6 6.47l.26.12c1.94-3.3 6.36-4.35 10.33-4.35 6.44 0 14.38 4.35 23.22 4.35 7.11 0 11.23-2.4 11.91-8.09l-.37-.06c-1.04 4.34-4.42 5.9-11.53 5.9M3.54 34.08c0-9.36 7.12-15.88 13.71-18.8l.45.6c-2.4 2.77-4.12 5.47-4.12 11.16 0 6.52 1.72 11.01 4.42 14.01.9-.97 1.42-2.62 1.42-3.97v-9.74l11.91-8.53.52.67c-1.05 1.5-1.65 2.85-1.65 5.17v6.21c0 4.35-7.12 8.99-11.54 10.78 2.92 2.85 7.04 4.05 11.46 4.05 1.65 0 3.07-.07 4.42-.3V18.2c-3.89-.22-7.57-1.27-10.93-2.17-3.6-1.05-7.27-2.02-10.41-2.02-4.8 0-10.64 1.65-10.71 8.61 0 .6.07 1.27.15 2.03l-.9.29C.91 22.77.46 20.67.46 18.57.4 10.11 6.61 2.7 16.57 2.7c4.19 0 8.16 1.05 11.61 2.02 3.74 1.05 7.41 2.02 11.16 2.02 1.87 0 2.99-.97 2.99-2.77s-.9-2.69-2.32-3.07l.16-.9c4.27.75 8.98 3.3 8.98 8.69 0 6.51-4.71 9.58-12.65 9.58h-.82v26.96c5.24-.97 8.68-3.44 11.3-7.56l.82.45c-2.92 9.21-9.73 17.97-21.86 17.97-12.36 0-22.4-7.18-22.4-22.01M153.34 36.4l-.06-10.19-2.26 1.57v9.51c0 1.05-.23 1.87-.52 2.62l.28.01c1.42-.92 2.56-2.3 2.56-3.52m-11.75-16.03c-3.3 3.3-6.37 7.87-6.37 13.71 0 13.85 9.34 20.82 21.1 20.82 7.34 0 12.46-3.97 15.45-6.97l-.2-.3c-3.44 2.77-8.14 5.03-15.25 5.03-9.51 0-18.7-5.84-18.7-18.57 0-5.09 1.83-10.07 4.23-13.45l-.26-.27zm25.31-5.39c-8.84 0-16.78-4.34-23.22-4.34-4.12 0-8.9 1.68-10.6 6.47l.26.12c1.95-3.3 6.37-4.35 10.33-4.35 6.44 0 14.38 4.35 23.22 4.35 7.12 0 11.23-2.4 11.91-8.09l-.37-.06c-1.03 4.34-4.41 5.9-11.53 5.9m-32.88 19.1c0-9.36 7.12-15.88 13.71-18.8l.45.6c-2.4 2.77-4.12 5.47-4.12 11.16 0 6.52 1.72 11.01 4.42 14.01.9-.97 1.42-2.62 1.42-3.97v-9.74l11.91-8.53.52.67c-1.05 1.5-1.65 2.85-1.65 5.17v6.21c0 4.35-7.12 8.99-11.54 10.78 2.92 2.85 7.04 4.05 11.46 4.05 1.65 0 3.07-.07 4.42-.3V18.2c-3.89-.22-7.57-1.27-10.93-2.17-3.6-1.05-7.27-2.02-10.41-2.02-4.8 0-10.64 1.65-10.71 8.61 0 .6.07 1.27.15 2.03l-.9.29c-.83-2.17-1.28-4.27-1.28-6.37-.07-8.46 6.14-15.88 16.1-15.88 4.19 0 8.16 1.05 11.61 2.02 3.74 1.05 7.41 2.02 11.16 2.02 1.87 0 2.99-.97 2.99-2.77s-.9-2.69-2.32-3.07l.15-.9c4.27.75 8.98 3.3 8.98 8.69 0 6.51-4.71 9.58-12.65 9.58h-.82v26.96c5.24-.97 8.69-3.44 11.31-7.56l.82.45c-2.92 9.21-9.73 17.97-21.86 17.97-12.34.01-22.39-7.17-22.39-22&quot;&gt;&lt;/path&gt;&lt;/svg&gt;&lt;svg class=&quot;col-span-2 md:max-h-12 w-full object-contain lg:col-span-1&quot; width=&quot;158&quot; height=&quot;48&quot; aria-hidden=&quot;true&quot; tabindex=&quot;-1&quot; viewBox=&quot;0 0 156 21&quot; xmlns=&quot;http://www.w3.org/2000/svg&quot;&gt;&lt;g fill=&quot;none&quot; fill-rule=&quot;evenodd&quot; data-testid=&quot;at-logo-cars&quot;&gt;&lt;path d=&quot;M-3-7h162v36H-3&quot;&gt;&lt;/path&gt;&lt;path fill=&quot;#222B5E&quot; d=&quot;M46.364 5.897v7.6c0 1.01.217 1.772.651 2.286.434.514 1.077.771 1.928.771.85 0 1.493-.257 1.927-.77.398-.472.614-1.152.647-2.04l.004-.247v-7.6h3.191v7.812c0 1.702-.532 3.062-1.595 4.081-1.064 1.02-2.455 1.53-4.174 1.53-1.72 0-3.11-.51-4.174-1.53-1.001-.959-1.531-2.22-1.59-3.784l-.005-.297V5.897h3.19zm26.767-.695c1.95 0 3.58.634 4.892 1.9 1.238 1.198 1.892 2.73 1.961 4.6l.006.332v.479c0 2.003-.656 3.638-1.967 4.905-1.312 1.268-2.942 1.901-4.892 1.901-1.95 0-3.567-.629-4.852-1.888-1.214-1.188-1.854-2.717-1.921-4.585l-.006-.333v-.479c0-2.02.642-3.664 1.927-4.931 1.285-1.267 2.902-1.901 4.852-1.901zm66.277 0c1.861 0 3.385.62 4.573 1.861 1.187 1.24 1.78 2.854 1.78 4.839 0 .195-.004.407-.012.638l-.017.352-.023.365h-9.625c.142 1.082.514 1.924 1.117 2.526.603.603 1.382.904 2.34.904.762 0 1.373-.133 1.834-.399a2.46 2.46 0 0 0 .723-.644l.12-.168h3.258c-.373 1.154-1.038 2.064-2 2.726-1.082.745-2.429 1.117-4.042 1.117-1.896 0-3.478-.647-4.745-1.94-1.197-1.222-1.829-2.745-1.895-4.568l-.006-.325v-.425c0-1.967.633-3.602 1.9-4.905 1.268-1.303 2.84-1.954 4.72-1.954zM130.65.46v18.434h-2.472l-.452-1.49h-.053a4.652 4.652 0 0 1-1.874 1.45c-.736.31-1.6.465-2.593.465-1.719 0-3.19-.638-4.413-1.914-1.15-1.201-1.76-2.693-1.828-4.475l-.006-.337v-.505c0-2.02.607-3.673 1.821-4.959 1.214-1.284 2.778-1.927 4.692-1.927.886 0 1.644.12 2.273.359.55.21 1.037.517 1.459.923l.177.18h.053V.46h3.216zm-22.963 4.742c.868 0 1.661.16 2.379.478.628.28 1.219.688 1.773 1.225l.235.238h.052l.532-1.542h2.34v13.293h-2.5l-.504-1.596h-.054a4.365 4.365 0 0 1-1.807 1.49c-.745.336-1.595.504-2.553.504-1.737 0-3.203-.628-4.4-1.887-1.125-1.184-1.722-2.683-1.788-4.495l-.006-.344v-.478c0-1.985.593-3.63 1.781-4.932 1.187-1.303 2.694-1.954 4.52-1.954zm-46.32-2.958v3.004h3.378v2.499h-3.377v7.212c0 .496.12.868.36 1.117.238.248.606.372 1.102.372.32 0 .63-.049.93-.146.242-.078.488-.193.74-.345l.191-.121h.452v2.632c-.319.178-.753.333-1.303.466-.55.133-1.01.2-1.382.2-1.436 0-2.517-.373-3.243-1.118-.679-.695-1.04-1.714-1.086-3.056l-.005-.293v-6.92h-1.808V6.284c.851-.407 1.56-.92 2.127-1.541.505-.552.96-1.271 1.366-2.159l.15-.34h1.409zM91.86 1.26v2.898h-4.892v14.736h-3.35V4.158h-5.104V1.26H91.86zm7.298 4.234a8.869 8.869 0 0 1 .974.067l.09.013v3.164h-1.197c-1.187 0-2.043.261-2.565.784-.489.488-.749 1.397-.781 2.726l-.004.292v6.354h-3.217V5.6h2.287l.69 2.552h.054a3.112 3.112 0 0 1 1.276-1.941c.673-.479 1.471-.718 2.393-.718zm55.523 0a8.398 8.398 0 0 1 .974.066l.09.014v3.164h-1.197c-1.187 0-2.043.262-2.565.784-.488.488-.749 1.397-.781 2.727l-.004.29v6.355h-3.217V5.6h2.287l.691 2.552h.053a3.11 3.11 0 0 1 1.276-1.94c.674-.48 1.471-.719 2.393-.719zM35.332 1.613l6.806 16.855v.426h-3.43l-1.329-3.51-.282-.75h-7.171l-.284.753-1.329 3.507h-3.296v-.426l6.806-16.855h3.51zM22.128 11.717l-1.577 3.905c-.799 1.9-2.593 3.238-4.668 3.268L.26 18.894l2.898-7.177h18.97zm86.064-3.91c-1.153 0-2.047.399-2.685 1.197-.638.797-.957 1.879-.957 3.243 0 1.365.319 2.442.957 3.23.638.79 1.532 1.184 2.685 1.184 1.134 0 2.025-.395 2.672-1.184.647-.788.97-1.865.97-3.23 0-1.364-.323-2.446-.97-3.243-.647-.798-1.538-1.197-2.672-1.197zm15.653 0c-1.153 0-2.047.399-2.686 1.197-.638.797-.957 1.879-.957 3.243 0 1.365.32 2.442.957 3.23.639.79 1.533 1.184 2.686 1.184 1.134 0 2.024-.395 2.672-1.184.646-.788.97-1.865.97-3.23 0-1.364-.324-2.446-.97-3.243-.648-.798-1.538-1.197-2.672-1.197zm-50.687.053c-1.117 0-1.99.395-2.619 1.184-.63.788-.944 1.856-.944 3.203 0 1.347.314 2.415.944 3.204.629.789 1.502 1.183 2.619 1.183 1.116 0 1.994-.394 2.632-1.183.638-.789.957-1.857.957-3.204 0-1.347-.32-2.415-.957-3.203-.638-.789-1.516-1.184-2.632-1.184zM33.55 4.91h-.053c-.071.301-.169.633-.293.996-.11.323-.284.797-.52 1.42l-.091.242-1.572 4.164h4.986l-1.553-4.164a132.1 132.1 0 0 1-.705-1.98 9.376 9.376 0 0 1-.2-.679zm105.963 2.924c-.886 0-1.608.24-2.167.718-.507.435-.88 1.075-1.116 1.92l-.067.26h6.301c-.053-.904-.341-1.613-.864-2.127-.523-.514-1.219-.771-2.087-.771z&quot;&gt;&lt;/path&gt;&lt;path fill=&quot;#b11212&quot; d=&quot;M26.209 1.613l-15.623.002c-2.075.031-3.868 1.368-4.668 3.267L4.341 8.789h18.97l2.898-7.176z&quot;&gt;&lt;/path&gt;&lt;/g&gt;&lt;/svg&gt;&lt;/div&gt;&lt;/div&gt;&lt;/div&gt;&lt;div class=&quot;py-12&quot; style=&quot;box-sizing: border-box; border-width: 0px; border-style: solid; border-color: rgb(229, 231, 235); --tw-border-spacing-x: 0; --tw-border-spacing-y: 0; --tw-translate-x: 0; --tw-translate-y: 0; --tw-rotate: 0; --tw-skew-x: 0; --tw-skew-y: 0; --tw-scale-x: 1; --tw-scale-y: 1; --tw-pan-x: ; --tw-pan-y: ; --tw-pinch-zoom: ; --tw-scroll-snap-strictness: proximity; --tw-gradient-from-position: ; --tw-gradient-via-position: ; --tw-gradient-to-position: ; --tw-ordinal: ; --tw-slashed-zero: ; --tw-numeric-figure: ; --tw-numeric-spacing: ; --tw-numeric-fraction: ; --tw-ring-inset: ; --tw-ring-offset-width: 0px; --tw-ring-offset-color: #fff; --tw-ring-color: rgb(59 130 246 / .5); --tw-ring-offset-shadow: 0 0 #0000; --tw-ring-shadow: 0 0 #0000; --tw-shadow: 0 0 #0000; --tw-shadow-colored: 0 0 #0000; --tw-blur: ; --tw-brightness: ; --tw-contrast: ; --tw-grayscale: ; --tw-hue-rotate: ; --tw-invert: ; --tw-saturate: ; --tw-sepia: ; --tw-drop-shadow: ; --tw-backdrop-blur: ; --tw-backdrop-brightness: ; --tw-backdrop-contrast: ; --tw-backdrop-grayscale: ; --tw-backdrop-hue-rotate: ; --tw-backdrop-invert: ; --tw-backdrop-opacity: ; --tw-backdrop-saturate: ; --tw-backdrop-sepia: ; padding-top: 3rem; padding-bottom: 3rem; color: rgb(0, 0, 0); font-family: Poppins, ui-sans-serif, system-ui, sans-serif, &amp;quot;Apple Color Emoji&amp;quot;, &amp;quot;Segoe UI Emoji&amp;quot;, &amp;quot;Segoe UI Symbol&amp;quot;, &amp;quot;Noto Color Emoji&amp;quot;; font-size: medium; font-style: normal; font-variant-ligatures: normal; font-variant-caps: normal; font-weight: 400; letter-spacing: normal; orphans: 2; text-align: start; text-indent: 0px; text-transform: none; widows: 2; word-spacing: 0px; -webkit-text-stroke-width: 0px; white-space: normal; background-color: rgb(255, 255, 255); text-decoration-thickness: initial; text-decoration-style: initial; text-decoration-color: initial;&quot;&gt;&lt;div class=&quot;mx-auto max-w-7xl px-6 lg:px-8&quot; style=&quot;box-sizing: border-box; border-width: 0px; border-style: solid; border-color: rgb(229, 231, 235); --tw-border-spacing-x: 0; --tw-border-spacing-y: 0; --tw-translate-x: 0; --tw-translate-y: 0; --tw-rotate: 0; --tw-skew-x: 0; --tw-skew-y: 0; --tw-scale-x: 1; --tw-scale-y: 1; --tw-pan-x: ; --tw-pan-y: ; --tw-pinch-zoom: ; --tw-scroll-snap-strictness: proximity; --tw-gradient-from-position: ; --tw-gradient-via-position: ; --tw-gradient-to-position: ; --tw-ordinal: ; --tw-slashed-zero: ; --tw-numeric-figure: ; --tw-numeric-spacing: ; --tw-numeric-fraction: ; --tw-ring-inset: ; --tw-ring-offset-width: 0px; --tw-ring-offset-color: #fff; --tw-ring-color: rgb(59 130 246 / .5); --tw-ring-offset-shadow: 0 0 #0000; --tw-ring-shadow: 0 0 #0000; --tw-shadow: 0 0 #0000; --tw-shadow-colored: 0 0 #0000; --tw-blur: ; --tw-brightness: ; --tw-contrast: ; --tw-grayscale: ; --tw-hue-rotate: ; --tw-invert: ; --tw-saturate: ; --tw-sepia: ; --tw-drop-shadow: ; --tw-backdrop-blur: ; --tw-backdrop-brightness: ; --tw-backdrop-contrast: ; --tw-backdrop-grayscale: ; --tw-backdrop-hue-rotate: ; --tw-backdrop-invert: ; --tw-backdrop-opacity: ; --tw-backdrop-saturate: ; --tw-backdrop-sepia: ; margin-left: auto; margin-right: auto; max-width: 80rem; padding-left: 2rem; padding-right: 2rem;&quot;&gt;&lt;div class=&quot;mx-auto max-w-6xl lg:mx-0&quot; style=&quot;box-sizing: border-box; border-width: 0px; border-style: solid; border-color: rgb(229, 231, 235); --tw-border-spacing-x: 0; --tw-border-spacing-y: 0; --tw-translate-x: 0; --tw-translate-y: 0; --tw-rotate: 0; --tw-skew-x: 0; --tw-skew-y: 0; --tw-scale-x: 1; --tw-scale-y: 1; --tw-pan-x: ; --tw-pan-y: ; --tw-pinch-zoom: ; --tw-scroll-snap-strictness: proximity; --tw-gradient-from-position: ; --tw-gradient-via-position: ; --tw-gradient-to-position: ; --tw-ordinal: ; --tw-slashed-zero: ; --tw-numeric-figure: ; --tw-numeric-spacing: ; --tw-numeric-fraction: ; --tw-ring-inset: ; --tw-ring-offset-width: 0px; --tw-ring-offset-color: #fff; --tw-ring-color: rgb(59 130 246 / .5); --tw-ring-offset-shadow: 0 0 #0000; --tw-ring-shadow: 0 0 #0000; --tw-shadow: 0 0 #0000; --tw-shadow-colored: 0 0 #0000; --tw-blur: ; --tw-brightness: ; --tw-contrast: ; --tw-grayscale: ; --tw-hue-rotate: ; --tw-invert: ; --tw-saturate: ; --tw-sepia: ; --tw-drop-shadow: ; --tw-backdrop-blur: ; --tw-backdrop-brightness: ; --tw-backdrop-contrast: ; --tw-backdrop-grayscale: ; --tw-backdrop-hue-rotate: ; --tw-backdrop-invert: ; --tw-backdrop-opacity: ; --tw-backdrop-saturate: ; --tw-backdrop-sepia: ; margin-left: 0px; margin-right: 0px; max-width: 72rem;&quot;&gt;&lt;br class=&quot;Apple-interchange-newline&quot;&gt;&lt;/div&gt;&lt;/div&gt;&lt;/div&gt;" id="j9WPDJRD46hS3IfpR3rU-36">
          <mxCell style="text;whiteSpace=wrap;html=1;" vertex="1" parent="1">
            <mxGeometry x="30" y="-940" width="1070" height="170" as="geometry" />
          </mxCell>
        </UserObject>
      </root>
    </mxGraphModel>
  </diagram>
</mxfile>
